<?xml version="1.0" encoding="utf-8"?>
<!-- Generator: Adobe Illustrator 28.1.0, SVG Export Plug-In . SVG Version: 6.00 Build 0)  -->
<svg version="1.1" id="Layer_1" xmlns="http://www.w3.org/2000/svg" xmlns:xlink="http://www.w3.org/1999/xlink" x="0px" y="0px"
	 viewBox="0 0 946.4 778" style="enable-background:new 0 0 946.4 778;" xml:space="preserve">
<style type="text/css">
	.st0{fill:#0073BB;}
	.st1{fill:#60BB46;}
	.st2{fill:none;stroke:#0073BB;stroke-width:10;stroke-miterlimit:10;}
</style>
<g>
	<path class="st0" d="M857.5,386.7c0,2.4-0.3,4.1-0.9,5.3c-0.7,1.6-1.9,2.8-3.5,3.7c-1.6,0.9-3.4,1.4-5.5,1.4
		c-2.1,0-3.7-0.5-4.7-1.4c-1.1-1-1.6-2.1-1.6-3.6c0-0.9,0.3-1.8,0.7-2.5c0.5-0.8,1.2-1.3,2.1-1.7c0.9-0.4,2.5-0.7,4.6-1.1
		c3.9-0.5,6.8-1.2,8.7-2V386.7z M859,400.5h5.6c-0.7-1.2-1.1-2.4-1.4-3.8c-0.2-1.3-0.3-4.4-0.3-9.4v-7.1c0-2.4-0.1-4-0.3-4.9
		c-0.3-1.5-0.9-2.7-1.7-3.6c-0.8-0.9-2-1.7-3.7-2.4c-1.7-0.6-3.8-0.9-6.5-0.9c-2.7,0-5.1,0.4-7.2,1.1c-2,0.8-3.6,1.8-4.7,3.2
		c-1.1,1.4-1.9,3.2-2.3,5.4l5.2,0.7c0.6-2.2,1.5-3.8,2.7-4.7c1.2-0.9,3-1.3,5.5-1.3c2.7,0,4.7,0.6,6.1,1.8c1,0.9,1.5,2.4,1.5,4.6
		c0,0.2,0,0.6,0,1.4c-2,0.7-5.2,1.3-9.5,1.8c-2.1,0.2-3.7,0.5-4.7,0.8c-1.4,0.4-2.7,1-3.8,1.8c-1.1,0.8-2.1,1.8-2.8,3.1
		c-0.7,1.3-1,2.7-1,4.2c0,2.6,0.9,4.8,2.8,6.5c1.9,1.7,4.5,2.5,8,2.5c2.1,0,4.1-0.4,5.9-1c1.8-0.7,3.7-1.9,5.7-3.5
		C858.1,398.1,858.5,399.4,859,400.5 M809,400.5v-17.2c0-4,0.8-6.8,2.5-8.2c1.7-1.4,3.6-2.2,5.9-2.2c1.4,0,2.7,0.3,3.7,1
		c1.1,0.6,1.8,1.5,2.2,2.6c0.4,1,0.6,2.7,0.6,4.9v19.1h5.3v-19.3c0-2.5-0.1-4.2-0.3-5.2c-0.3-1.5-0.9-2.8-1.6-3.9
		c-0.8-1.1-2-2-3.6-2.7c-1.6-0.7-3.3-1-5.3-1c-4.4,0-7.7,1.7-10,5.2v-4.5h-4.8v31.5H809z M773.1,386.7c0,2.4-0.3,4.1-0.9,5.3
		c-0.8,1.6-1.9,2.8-3.5,3.7c-1.6,0.9-3.4,1.4-5.5,1.4c-2,0-3.6-0.5-4.7-1.4c-1.1-1-1.6-2.1-1.6-3.6c0-0.9,0.3-1.8,0.8-2.5
		c0.5-0.8,1.2-1.3,2.1-1.7c0.9-0.4,2.5-0.7,4.6-1.1c3.9-0.5,6.8-1.2,8.7-2V386.7z M774.6,400.5h5.6c-0.7-1.2-1.1-2.4-1.4-3.8
		c-0.2-1.3-0.3-4.4-0.3-9.4v-7.1c0-2.4-0.1-4-0.2-4.9c-0.3-1.5-0.9-2.7-1.7-3.6c-0.8-0.9-2.1-1.7-3.7-2.4c-1.7-0.6-3.9-0.9-6.5-0.9
		c-2.7,0-5.1,0.4-7.1,1.1c-2.1,0.8-3.6,1.8-4.7,3.2c-1.1,1.4-1.9,3.2-2.3,5.4l5.2,0.7c0.6-2.2,1.5-3.8,2.7-4.7
		c1.2-0.9,3-1.3,5.5-1.3c2.7,0,4.7,0.6,6.1,1.8c1,0.9,1.5,2.4,1.5,4.6c0,0.2,0,0.6,0,1.4c-2.1,0.7-5.2,1.3-9.5,1.8
		c-2.1,0.2-3.7,0.5-4.7,0.8c-1.4,0.4-2.7,1-3.9,1.8c-1.1,0.8-2,1.8-2.8,3.1c-0.7,1.3-1.1,2.7-1.1,4.2c0,2.6,0.9,4.8,2.8,6.5
		c1.9,1.7,4.5,2.5,8,2.5c2.1,0,4.1-0.4,5.9-1c1.8-0.7,3.7-1.9,5.7-3.5C773.7,398.1,774.1,399.4,774.6,400.5 M724.6,400.5v-17.2
		c0-2.5,0.3-4.4,0.9-5.8c0.6-1.4,1.6-2.5,3-3.3c1.4-0.8,2.9-1.2,4.5-1.2c2.1,0,3.7,0.6,4.9,1.8c1.2,1.2,1.7,3.1,1.7,5.8v19.9h5.3
		v-19.9c0-3.1-0.4-5.4-1.1-7c-0.8-1.6-2-2.9-3.7-3.8c-1.7-0.9-3.8-1.4-6.1-1.4c-3.8,0-6.9,1.4-9.4,4.3v-15.6h-5.3v43.4H724.6z
		 M711.7,396c-0.8,0-1.4-0.1-1.8-0.4c-0.4-0.2-0.7-0.6-0.9-1c-0.2-0.4-0.3-1.4-0.3-2.9v-18.4h5.4v-4.1h-5.4v-11l-5.3,3.2v7.8h-3.9
		v4.1h3.9v18.1c0,3.2,0.2,5.3,0.7,6.3c0.4,1,1.2,1.8,2.2,2.4c1.1,0.6,2.6,0.9,4.5,0.9c1.2,0,2.5-0.1,4-0.5l-0.8-4.7
		C713,395.9,712.3,396,711.7,396 M687.4,400.5v-16.5c0-2.2,0.3-4.3,0.9-6.2c0.4-1.2,1-2.2,2-2.9c0.9-0.7,2-1,3.1-1
		c1.3,0,2.6,0.4,3.9,1.2l1.8-5c-1.9-1.1-3.7-1.7-5.5-1.7c-1.2,0-2.4,0.4-3.4,1.1c-1,0.7-2.2,2.2-3.4,4.4v-4.8h-4.8v31.5H687.4z
		 M668.5,386.7c0,2.4-0.3,4.1-0.9,5.3c-0.8,1.6-1.9,2.8-3.5,3.7c-1.6,0.9-3.4,1.4-5.5,1.4s-3.6-0.5-4.7-1.4c-1.1-1-1.6-2.1-1.6-3.6
		c0-0.9,0.2-1.8,0.7-2.5c0.5-0.8,1.2-1.3,2.1-1.7c0.9-0.4,2.5-0.7,4.6-1.1c3.9-0.5,6.8-1.2,8.7-2V386.7z M670,400.5h5.6
		c-0.7-1.2-1.1-2.4-1.4-3.8c-0.2-1.3-0.3-4.4-0.3-9.4v-7.1c0-2.4-0.1-4-0.3-4.9c-0.3-1.5-0.8-2.7-1.6-3.6c-0.8-0.9-2-1.7-3.7-2.4
		c-1.7-0.6-3.9-0.9-6.6-0.9c-2.7,0-5.1,0.4-7.1,1.1c-2.1,0.8-3.6,1.8-4.7,3.2c-1.1,1.4-1.9,3.2-2.4,5.4l5.2,0.7
		c0.6-2.2,1.5-3.8,2.7-4.7c1.2-0.9,3-1.3,5.5-1.3c2.7,0,4.7,0.6,6.1,1.8c1,0.9,1.5,2.4,1.5,4.6c0,0.2,0,0.6,0,1.4
		c-2,0.7-5.2,1.3-9.5,1.8c-2.1,0.2-3.7,0.5-4.7,0.8c-1.4,0.4-2.7,1-3.9,1.8c-1.1,0.8-2,1.8-2.8,3.1c-0.7,1.3-1.1,2.7-1.1,4.2
		c0,2.6,0.9,4.8,2.8,6.5c1.9,1.7,4.5,2.5,8,2.5c2.1,0,4.1-0.4,5.9-1c1.8-0.7,3.7-1.9,5.7-3.5C669.1,398.1,669.4,399.4,670,400.5
		 M621.4,375.2c1.7-1.6,3.7-2.5,6.2-2.5c2.7,0,4.9,1,6.6,3.1c1.1,1.3,1.8,3.3,2,5.9h-17.6C618.8,379,619.8,376.8,621.4,375.2
		 M632.9,395.3c-1.4,1-3,1.6-5,1.6c-2.6,0-4.8-0.9-6.6-2.8c-1.8-1.8-2.7-4.5-2.9-7.9h23.5c0-0.6,0-1.1,0-1.4c0-5.2-1.3-9.2-4-12.1
		c-2.7-2.9-6.1-4.3-10.3-4.3c-4.3,0-7.9,1.5-10.6,4.4c-2.7,2.9-4.1,7-4.1,12.3c0,5.1,1.3,9.1,4,11.9c2.7,2.8,6.4,4.3,11,4.3
		c3.7,0,6.7-0.9,9-2.7c2.4-1.8,4-4.3,4.8-7.5l-5.5-0.7C635.4,392.7,634.3,394.3,632.9,395.3 M586.2,398.7c2.2,1.7,5.3,2.5,9.4,2.5
		c2.5,0,4.7-0.4,6.6-1.3c2-0.8,3.5-2.1,4.5-3.7c1-1.6,1.5-3.2,1.5-5c0-1.8-0.4-3.4-1.3-4.6c-0.8-1.2-2-2.1-3.5-2.8
		c-1.5-0.6-4.1-1.5-7.9-2.5c-2.6-0.7-4.2-1.1-4.7-1.4c-0.9-0.4-1.6-0.8-2.1-1.4c-0.4-0.5-0.6-1.2-0.6-1.9c0-1.1,0.5-2,1.6-2.8
		c1-0.8,2.8-1.2,5.3-1.2c2.1,0,3.7,0.5,4.8,1.4c1.1,0.9,1.8,2.2,2,3.8l5.2-0.7c-0.3-2-0.9-3.6-1.8-4.9c-0.9-1.2-2.3-2.2-4.1-2.9
		c-1.9-0.7-4-1.1-6.5-1.1c-1.6,0-3.2,0.2-4.6,0.6c-1.4,0.4-2.6,1-3.4,1.6c-1.1,0.8-2,1.8-2.6,3c-0.6,1.2-1,2.5-1,3.9
		c0,1.5,0.4,3,1.2,4.2c0.8,1.3,1.9,2.3,3.4,3c1.5,0.7,4.2,1.6,8.1,2.6c2.9,0.7,4.7,1.3,5.5,1.8c1,0.7,1.6,1.6,1.6,2.8
		c0,1.4-0.6,2.5-1.8,3.5c-1.2,1-3,1.5-5.5,1.5c-2.4,0-4.3-0.6-5.7-1.7c-1.4-1.1-2.2-2.7-2.5-4.9l-5.3,0.8
		C582.7,394.5,584.1,397,586.2,398.7 M539.1,400.5v-16.3c0-2.8,0.3-5,0.9-6.6c0.6-1.5,1.5-2.7,2.8-3.5c1.3-0.8,2.7-1.2,4.1-1.2
		c2,0,3.4,0.6,4.3,1.8c0.9,1.2,1.3,3,1.3,5.3v20.4h5.3v-18.3c0-3.2,0.7-5.6,2.2-7.1c1.5-1.5,3.3-2.2,5.5-2.2c1.2,0,2.3,0.3,3.2,0.9
		c0.9,0.6,1.5,1.4,1.9,2.3c0.3,0.9,0.5,2.5,0.5,4.6v19.8h5.3v-21.6c0-3.6-0.8-6.2-2.5-8c-1.7-1.7-4.1-2.6-7.2-2.6
		c-4,0-7.2,1.8-9.7,5.5c-0.6-1.8-1.7-3.1-3.2-4.1c-1.5-1-3.4-1.5-5.7-1.5c-2.1,0-3.9,0.5-5.6,1.4c-1.6,0.9-2.9,2.2-3.9,3.7v-4.4
		h-4.8v31.5H539.1z M525.6,369.1h-5.3v31.5h5.3V369.1z M525.6,357.1h-5.3v6.1h5.3V357.1z M506.6,386.7c0,2.4-0.3,4.1-0.9,5.3
		c-0.7,1.6-1.9,2.8-3.5,3.7c-1.6,0.9-3.4,1.4-5.5,1.4c-2.1,0-3.7-0.5-4.7-1.4c-1.1-1-1.6-2.1-1.6-3.6c0-0.9,0.2-1.8,0.7-2.5
		c0.5-0.8,1.2-1.3,2.1-1.7c0.9-0.4,2.5-0.7,4.7-1.1c3.9-0.5,6.8-1.2,8.7-2V386.7z M508.1,400.5h5.6c-0.7-1.2-1.1-2.4-1.4-3.8
		c-0.2-1.3-0.3-4.4-0.3-9.4v-7.1c0-2.4-0.1-4-0.2-4.9c-0.3-1.5-0.9-2.7-1.7-3.6c-0.8-0.9-2-1.7-3.7-2.4c-1.7-0.6-3.9-0.9-6.5-0.9
		c-2.7,0-5.1,0.4-7.1,1.1c-2.1,0.8-3.6,1.8-4.7,3.2c-1.1,1.4-1.9,3.2-2.3,5.4l5.2,0.7c0.6-2.2,1.5-3.8,2.7-4.7
		c1.2-0.9,3-1.3,5.5-1.3c2.7,0,4.7,0.6,6.1,1.8c1,0.9,1.5,2.4,1.5,4.6c0,0.2,0,0.6,0,1.4c-2,0.7-5.2,1.3-9.5,1.8
		c-2.1,0.2-3.7,0.5-4.8,0.8c-1.4,0.4-2.7,1-3.8,1.8c-1.2,0.8-2.1,1.8-2.8,3.1c-0.7,1.3-1,2.7-1,4.2c0,2.6,0.9,4.8,2.8,6.5
		c1.9,1.7,4.5,2.5,8,2.5c2.1,0,4-0.4,5.9-1c1.8-0.7,3.7-1.9,5.7-3.5C507.2,398.1,507.5,399.4,508.1,400.5 M458.7,375.7
		c1.6-1.9,3.6-2.9,5.9-2.9c2.4,0,4.5,1,6.1,3c1.7,2,2.5,5.2,2.5,9.5c0,3.9-0.8,6.8-2.4,8.7c-1.6,1.9-3.6,2.9-6,2.9c-2.3,0-4.3-1-6-3
		c-1.7-2-2.5-5-2.5-9.1C456.3,380.7,457.1,377.6,458.7,375.7 M478.1,400.5v-43.4h-5.3v15.6c-0.9-1.3-2.1-2.3-3.6-3.1
		c-1.5-0.8-3.2-1.2-5.1-1.2c-2.6,0-4.9,0.7-7,2c-2.1,1.4-3.7,3.3-4.7,5.9c-1.1,2.6-1.6,5.4-1.6,8.5c0,3.2,0.6,6.1,1.7,8.6
		c1.1,2.5,2.8,4.4,4.9,5.8c2.1,1.4,4.4,2.1,6.9,2.1c3.9,0,6.8-1.6,8.8-4.7v4H478.1z M439.1,386.7c0,2.4-0.3,4.1-0.9,5.3
		c-0.8,1.6-1.9,2.8-3.5,3.7c-1.6,0.9-3.4,1.4-5.5,1.4c-2.1,0-3.6-0.5-4.7-1.4c-1.1-1-1.6-2.1-1.6-3.6c0-0.9,0.2-1.8,0.7-2.5
		c0.5-0.8,1.2-1.3,2.1-1.7c0.9-0.4,2.4-0.7,4.6-1.1c3.9-0.5,6.8-1.2,8.7-2V386.7z M440.6,400.5h5.6c-0.7-1.2-1.1-2.4-1.3-3.8
		c-0.2-1.3-0.4-4.4-0.4-9.4v-7.1c0-2.4-0.1-4-0.3-4.9c-0.3-1.5-0.9-2.7-1.7-3.6c-0.8-0.9-2.1-1.7-3.7-2.4c-1.7-0.6-3.9-0.9-6.6-0.9
		c-2.7,0-5.1,0.4-7.1,1.1c-2.1,0.8-3.6,1.8-4.7,3.2c-1.1,1.4-1.9,3.2-2.3,5.4l5.2,0.7c0.6-2.2,1.4-3.8,2.6-4.7
		c1.2-0.9,3.1-1.3,5.6-1.3c2.7,0,4.7,0.6,6.1,1.8c1,0.9,1.5,2.4,1.5,4.6c0,0.2,0,0.6,0,1.4c-2,0.7-5.2,1.3-9.5,1.8
		c-2.1,0.2-3.7,0.5-4.7,0.8c-1.4,0.4-2.7,1-3.9,1.8c-1.1,0.8-2,1.8-2.7,3.1c-0.7,1.3-1.1,2.7-1.1,4.2c0,2.6,0.9,4.8,2.8,6.5
		c1.9,1.7,4.5,2.5,8,2.5c2.1,0,4-0.4,5.9-1c1.8-0.7,3.7-1.9,5.7-3.5C439.7,398.1,440,399.4,440.6,400.5 M388.6,400.5v-19.7H409v-5.1
		h-20.4v-13.5h23.6v-5.1h-29.3v43.4H388.6z M350.1,400.5v-16.5c0-2.2,0.3-4.3,0.9-6.2c0.4-1.2,1.1-2.2,2-2.9c0.9-0.7,2-1,3.1-1
		c1.3,0,2.6,0.4,3.9,1.2l1.8-5c-1.8-1.1-3.7-1.7-5.5-1.7c-1.2,0-2.4,0.4-3.4,1.1c-1,0.7-2.2,2.2-3.4,4.4v-4.8h-4.8v31.5H350.1z
		 M331.1,386.7c0,2.4-0.3,4.1-0.9,5.3c-0.8,1.6-1.9,2.8-3.5,3.7c-1.6,0.9-3.4,1.4-5.5,1.4c-2.1,0-3.6-0.5-4.7-1.4
		c-1.1-1-1.6-2.1-1.6-3.6c0-0.9,0.2-1.8,0.7-2.5c0.5-0.8,1.2-1.3,2.1-1.7c0.9-0.4,2.5-0.7,4.6-1.1c3.9-0.5,6.8-1.2,8.7-2V386.7z
		 M332.6,400.5h5.6c-0.7-1.2-1.1-2.4-1.3-3.8c-0.2-1.3-0.3-4.4-0.3-9.4v-7.1c0-2.4-0.1-4-0.3-4.9c-0.3-1.5-0.9-2.7-1.7-3.6
		c-0.8-0.9-2-1.7-3.7-2.4c-1.7-0.6-3.9-0.9-6.5-0.9c-2.7,0-5.1,0.4-7.1,1.1c-2,0.8-3.6,1.8-4.7,3.2c-1.1,1.4-1.9,3.2-2.3,5.4
		l5.2,0.7c0.6-2.2,1.5-3.8,2.7-4.7c1.2-0.9,3-1.3,5.5-1.3c2.7,0,4.7,0.6,6.1,1.8c1,0.9,1.5,2.4,1.5,4.6c0,0.2,0,0.6,0,1.4
		c-2,0.7-5.2,1.3-9.5,1.8c-2.1,0.2-3.7,0.5-4.7,0.8c-1.4,0.4-2.7,1-3.8,1.8c-1.2,0.8-2.1,1.8-2.8,3.1c-0.7,1.3-1,2.7-1,4.2
		c0,2.6,0.9,4.8,2.8,6.5c1.9,1.7,4.5,2.5,8,2.5c2.1,0,4-0.4,5.9-1c1.8-0.7,3.7-1.9,5.7-3.5C331.7,398.1,332.1,399.4,332.6,400.5
		 M291.5,365.2l6.5-8.3h-7l-3.9,8.3H291.5z M284.1,375.2c1.7-1.6,3.7-2.5,6.2-2.5c2.7,0,4.9,1,6.6,3.1c1.1,1.3,1.8,3.3,2,5.9h-17.6
		C281.5,379,282.4,376.8,284.1,375.2 M295.5,395.3c-1.4,1-3,1.6-5,1.6c-2.6,0-4.9-0.9-6.6-2.8c-1.8-1.8-2.7-4.5-2.9-7.9h23.5
		c0-0.6,0.1-1.1,0.1-1.4c0-5.2-1.4-9.2-4-12.1c-2.7-2.9-6.1-4.3-10.3-4.3c-4.4,0-7.9,1.5-10.6,4.4c-2.7,2.9-4.1,7-4.1,12.3
		c0,5.1,1.4,9.1,4,11.9c2.7,2.8,6.4,4.3,11,4.3c3.6,0,6.7-0.9,9-2.7c2.4-1.8,4-4.3,4.8-7.5l-5.5-0.7
		C298,392.7,296.9,394.3,295.5,395.3 M249.4,375.7c1.6-1.9,3.6-2.9,5.9-2.9c2.4,0,4.5,1,6.1,3c1.7,2,2.5,5.2,2.5,9.5
		c0,3.9-0.8,6.8-2.5,8.7c-1.6,1.9-3.6,2.9-5.9,2.9c-2.3,0-4.3-1-6-3c-1.7-2-2.5-5-2.5-9.1C247.1,380.7,247.9,377.6,249.4,375.7
		 M268.9,400.5v-43.4h-5.3v15.6c-0.9-1.3-2.1-2.3-3.6-3.1c-1.5-0.8-3.2-1.2-5.1-1.2c-2.6,0-4.9,0.7-7,2c-2.1,1.4-3.6,3.3-4.7,5.9
		c-1,2.6-1.5,5.4-1.5,8.5c0,3.2,0.6,6.1,1.7,8.6c1.1,2.5,2.8,4.4,4.9,5.8c2.1,1.4,4.4,2.1,6.9,2.1c3.9,0,6.8-1.6,8.8-4.7v4H268.9z
		 M235.4,369.1H230v31.5h5.3V369.1z M235.4,357.1H230v6.1h5.3V357.1z M216.4,386.7c0,2.4-0.3,4.1-0.9,5.3c-0.7,1.6-1.9,2.8-3.5,3.7
		c-1.6,0.9-3.4,1.4-5.5,1.4s-3.6-0.5-4.7-1.4c-1.1-1-1.6-2.1-1.6-3.6c0-0.9,0.2-1.8,0.7-2.5c0.5-0.8,1.2-1.3,2.1-1.7
		c0.9-0.4,2.5-0.7,4.6-1.1c3.9-0.5,6.8-1.2,8.7-2V386.7z M217.9,400.5h5.6c-0.7-1.2-1.1-2.4-1.3-3.8c-0.2-1.3-0.4-4.4-0.4-9.4v-7.1
		c0-2.4-0.1-4-0.3-4.9c-0.3-1.5-0.9-2.7-1.7-3.6c-0.8-0.9-2-1.7-3.7-2.4c-1.7-0.6-3.8-0.9-6.5-0.9c-2.7,0-5.1,0.4-7.1,1.1
		c-2,0.8-3.6,1.8-4.7,3.2c-1.1,1.4-1.9,3.2-2.3,5.4l5.2,0.7c0.6-2.2,1.5-3.8,2.7-4.7c1.2-0.9,3.1-1.3,5.6-1.3c2.7,0,4.7,0.6,6.1,1.8
		c1,0.9,1.5,2.4,1.5,4.6c0,0.2,0,0.6,0,1.4c-2,0.7-5.2,1.3-9.5,1.8c-2.1,0.2-3.7,0.5-4.7,0.8c-1.4,0.4-2.7,1-3.9,1.8
		c-1.1,0.8-2,1.8-2.8,3.1c-0.7,1.3-1,2.7-1,4.2c0,2.6,0.9,4.8,2.8,6.5c1.8,1.7,4.5,2.5,8,2.5c2.1,0,4.1-0.4,5.9-1
		c1.8-0.7,3.7-1.9,5.7-3.5C217,398.1,217.3,399.4,217.9,400.5 M188.7,396c-0.8,0-1.4-0.1-1.8-0.4c-0.4-0.2-0.7-0.6-0.9-1
		c-0.2-0.4-0.3-1.4-0.3-2.9v-18.4h5.4v-4.1h-5.4v-11l-5.3,3.2v7.8h-3.9v4.1h3.9v18.1c0,3.2,0.2,5.3,0.6,6.3c0.4,1,1.2,1.8,2.3,2.4
		c1.1,0.6,2.6,0.9,4.5,0.9c1.2,0,2.5-0.1,4-0.5l-0.8-4.7C190.1,395.9,189.3,396,188.7,396 M140,394.4c1.5,2.3,3.6,4,6.3,5.2
		c2.7,1.1,5.9,1.7,9.9,1.7c3.1,0,5.9-0.6,8.4-1.7c2.5-1.1,4.4-2.7,5.7-4.8c1.3-2,2-4.2,2-6.5c0-2.3-0.6-4.4-1.8-6.2
		c-1.2-1.8-3.1-3.3-5.6-4.4c-1.7-0.8-4.9-1.7-9.6-2.8c-4.7-1.1-7.5-2.1-8.7-3.1s-1.7-2.3-1.7-3.9c0-1.8,0.8-3.3,2.4-4.6
		c1.6-1.3,4.1-1.9,7.6-1.9c3.4,0,5.9,0.7,7.6,2.1c1.7,1.4,2.7,3.5,3,6.2l5.5-0.4c-0.1-2.5-0.8-4.8-2.1-6.8c-1.3-2-3.2-3.5-5.7-4.6
		c-2.5-1-5.3-1.6-8.5-1.6c-2.9,0-5.6,0.5-8,1.5c-2.4,1-4.2,2.4-5.5,4.3c-1.2,1.9-1.8,4-1.8,6.2c0,2,0.5,3.8,1.5,5.4
		c1,1.6,2.6,2.9,4.6,4c1.6,0.8,4.4,1.7,8.4,2.7c4,1,6.6,1.7,7.8,2.1c1.8,0.7,3.1,1.6,3.9,2.6c0.8,1,1.2,2.2,1.2,3.6
		c0,1.4-0.4,2.6-1.2,3.7c-0.8,1.1-2.1,2-3.8,2.7c-1.7,0.7-3.6,1-5.8,1c-2.5,0-4.7-0.4-6.7-1.3c-2-0.9-3.4-2-4.4-3.4
		c-0.9-1.4-1.5-3.2-1.8-5.3l-5.4,0.5C137.7,389.5,138.5,392.1,140,394.4"/>
	<path class="st0" d="M660.5,473.4v-17.2c0-4,0.8-6.8,2.5-8.2c1.7-1.5,3.6-2.2,5.9-2.2c1.4,0,2.6,0.3,3.7,1c1.1,0.6,1.8,1.5,2.2,2.6
		c0.4,1.1,0.6,2.7,0.6,4.9v19.1h5.3V454c0-2.5-0.1-4.2-0.3-5.2c-0.3-1.5-0.9-2.8-1.7-4c-0.8-1.1-2-2-3.6-2.7c-1.6-0.7-3.3-1-5.2-1
		c-4.4,0-7.7,1.7-10,5.2v-4.5h-4.8v31.5H660.5z M647.1,441.9h-5.4v31.5h5.4V441.9z M647.1,429.9h-5.4v6.1h5.4V429.9z M616.5,429.9
		h-5.3v43.5h5.3V429.9z M603,473.4v-31.5h-5.3v16.9c0,2.7-0.3,4.7-0.9,6.1c-0.6,1.4-1.6,2.5-3,3.4c-1.4,0.8-2.9,1.2-4.5,1.2
		c-1.6,0-3-0.4-4-1.2c-1.1-0.8-1.8-1.9-2.1-3.3c-0.2-1-0.3-2.9-0.3-5.6v-17.5h-5.3v19.5c0,2.3,0.1,3.9,0.3,5c0.3,1.6,0.9,2.9,1.7,4
		c0.8,1.1,2,2,3.6,2.7c1.6,0.7,3.3,1,5.2,1c4.2,0,7.5-1.8,10-5.3v4.6H603z M549.1,473.4v-17.2c0-2.5,0.3-4.4,0.9-5.8
		c0.6-1.4,1.6-2.5,3-3.4c1.4-0.8,2.9-1.2,4.5-1.2c2.1,0,3.8,0.6,4.9,1.8c1.1,1.2,1.7,3.1,1.7,5.8v20h5.3v-20c0-3.1-0.4-5.4-1.1-7
		c-0.8-1.6-2-2.9-3.7-3.8c-1.7-0.9-3.7-1.4-6.1-1.4c-3.8,0-7,1.4-9.4,4.3v-15.6h-5.3v43.5H549.1z M506.4,435.1h9.1
		c3.4,0,5.9,0.3,7.4,0.9c2.1,0.8,4,2.5,5.5,4.9c1.5,2.5,2.2,5.9,2.2,10.5c0,3.3-0.4,6-1.1,8.3c-0.8,2.3-1.8,4.2-3.2,5.5
		c-1,1-2.3,1.7-3.9,2.2c-1.6,0.5-3.9,0.8-6.8,0.8h-9.3V435.1z M516.3,473.4c2.6,0,5-0.2,7-0.7c2-0.5,3.8-1.2,5.2-2.2
		c1.4-1,2.7-2.3,3.9-4c1.2-1.7,2.2-3.8,3-6.3c0.8-2.6,1.1-5.5,1.1-8.8c0-3.9-0.6-7.3-1.7-10.3c-1.1-3-2.9-5.5-5.2-7.4
		c-1.8-1.5-3.9-2.5-6.4-3.1c-1.8-0.4-4.4-0.6-7.7-0.6h-15v43.5H516.3z M437.9,473.4v-16.3c0-2.9,0.3-5.1,0.9-6.6
		c0.6-1.5,1.5-2.7,2.8-3.5c1.3-0.8,2.7-1.2,4.2-1.2c2,0,3.4,0.6,4.3,1.8c0.9,1.2,1.3,3,1.3,5.3v20.5h5.4v-18.3
		c0-3.2,0.7-5.6,2.2-7.1c1.5-1.5,3.3-2.2,5.5-2.2c1.2,0,2.3,0.3,3.2,0.9c0.9,0.6,1.5,1.3,1.9,2.3c0.4,0.9,0.5,2.5,0.5,4.6v19.8h5.3
		v-21.6c0-3.6-0.8-6.2-2.5-8c-1.7-1.7-4.1-2.6-7.2-2.6c-4,0-7.2,1.8-9.7,5.5c-0.6-1.8-1.7-3.1-3.1-4.1c-1.5-1-3.4-1.4-5.7-1.4
		c-2.1,0-3.9,0.5-5.6,1.4c-1.7,0.9-3,2.2-3.9,3.7v-4.4h-4.8v31.5H437.9z M424.2,473.4v-31.5h-5.3v16.9c0,2.7-0.3,4.7-0.9,6.1
		c-0.6,1.4-1.6,2.5-3,3.4c-1.4,0.8-2.9,1.2-4.5,1.2c-1.6,0-2.9-0.4-4-1.2c-1.1-0.8-1.8-1.9-2.1-3.3c-0.2-1-0.3-2.9-0.3-5.6v-17.5
		h-5.4v19.5c0,2.3,0.1,3.9,0.3,5c0.3,1.6,0.9,2.9,1.6,4c0.8,1.1,2,2,3.6,2.7c1.6,0.7,3.4,1,5.2,1c4.2,0,7.5-1.8,10-5.3v4.6H424.2z
		 M353.5,473.4v-17.2c0-4,0.8-6.8,2.5-8.2c1.7-1.5,3.6-2.2,5.9-2.2c1.4,0,2.7,0.3,3.8,1c1,0.6,1.8,1.5,2.2,2.6
		c0.4,1.1,0.6,2.7,0.6,4.9v19.1h5.4V454c0-2.5-0.1-4.2-0.3-5.2c-0.3-1.5-0.9-2.8-1.7-4c-0.8-1.1-2-2-3.6-2.7c-1.6-0.7-3.3-1-5.2-1
		c-4.4,0-7.7,1.7-10,5.2v-4.5h-4.8v31.5H353.5z M319.7,473.4v-17.2c0-4,0.8-6.8,2.5-8.2c1.6-1.5,3.6-2.2,5.9-2.2
		c1.4,0,2.7,0.3,3.7,1c1.1,0.6,1.8,1.5,2.2,2.6c0.4,1.1,0.6,2.7,0.6,4.9v19.1h5.3V454c0-2.5-0.1-4.2-0.3-5.2c-0.3-1.5-0.9-2.8-1.7-4
		c-0.8-1.1-2-2-3.6-2.7c-1.6-0.7-3.3-1-5.2-1c-4.4,0-7.7,1.7-10,5.2v-4.5h-4.8v31.5H319.7z M300.7,459.5c0,2.4-0.3,4.1-0.8,5.3
		c-0.8,1.6-1.9,2.8-3.5,3.7c-1.6,0.9-3.4,1.4-5.5,1.4c-2.1,0-3.7-0.5-4.7-1.4c-1.1-0.9-1.6-2.1-1.6-3.6c0-0.9,0.3-1.8,0.8-2.5
		c0.5-0.8,1.2-1.3,2.1-1.7c0.9-0.4,2.5-0.8,4.6-1.1c3.9-0.6,6.8-1.2,8.7-2V459.5z M302.2,473.4h5.6c-0.7-1.2-1.1-2.5-1.4-3.8
		c-0.2-1.3-0.3-4.4-0.3-9.4v-7.1c0-2.4-0.1-4-0.3-4.9c-0.3-1.5-0.9-2.7-1.7-3.7c-0.8-0.9-2-1.7-3.7-2.4c-1.7-0.6-3.9-0.9-6.6-0.9
		c-2.7,0-5.1,0.4-7.1,1.1c-2.1,0.7-3.6,1.8-4.7,3.2c-1.1,1.4-1.9,3.2-2.3,5.4l5.2,0.7c0.6-2.2,1.5-3.8,2.7-4.7
		c1.2-0.9,3-1.3,5.6-1.3c2.7,0,4.7,0.6,6.1,1.8c1,0.9,1.5,2.4,1.5,4.6c0,0.2,0,0.7,0,1.4c-2,0.7-5.2,1.3-9.5,1.8
		c-2.1,0.3-3.7,0.5-4.7,0.8c-1.4,0.4-2.7,1-3.8,1.7c-1.1,0.8-2,1.8-2.7,3.1c-0.7,1.3-1.1,2.7-1.1,4.2c0,2.6,0.9,4.8,2.8,6.4
		c1.9,1.7,4.5,2.5,8,2.5c2.1,0,4.1-0.3,5.9-1c1.8-0.7,3.7-1.9,5.7-3.5C301.3,471,301.7,472.3,302.2,473.4 M253.6,448.1
		c1.7-1.6,3.7-2.5,6.2-2.5c2.7,0,4.9,1,6.6,3.1c1.1,1.3,1.8,3.3,2,5.9h-17.6C251.1,451.9,252,449.7,253.6,448.1 M265.1,468.2
		c-1.4,1-3,1.5-5,1.5c-2.6,0-4.8-0.9-6.6-2.8c-1.8-1.8-2.7-4.5-2.9-7.9h23.5c0-0.6,0-1.1,0-1.4c0-5.2-1.3-9.2-4-12.1
		c-2.7-2.9-6.1-4.3-10.3-4.3c-4.4,0-7.9,1.5-10.6,4.4c-2.7,2.9-4.1,7-4.1,12.3c0,5.1,1.4,9.1,4,11.9c2.7,2.9,6.3,4.2,11,4.2
		c3.6,0,6.7-0.9,9-2.7c2.4-1.8,4-4.3,4.8-7.5l-5.5-0.7C267.6,465.5,266.5,467.2,265.1,468.2 M231.9,473.4v-16.5
		c0-2.3,0.3-4.3,0.9-6.2c0.4-1.2,1-2.2,2-2.9c0.9-0.7,2-1,3.1-1c1.3,0,2.6,0.4,3.9,1.1l1.8-4.9c-1.9-1.2-3.7-1.7-5.5-1.7
		c-1.2,0-2.4,0.3-3.4,1.1c-1,0.7-2.2,2.2-3.4,4.4v-4.8h-4.8v31.5H231.9z M218.5,441.9h-5.3v31.5h5.3V441.9z M218.5,429.9h-5.3v6.1
		h5.3V429.9z M189.7,427.3l6.5-8.3h-7l-4,8.3H189.7z M205.9,473.4v-5.1h-26.7v-14.8h24v-5.1h-24v-13.3h25.7v-5.1h-31.4v43.5H205.9z
		 M144.2,473.4v-17.2c0-2.5,0.3-4.4,0.9-5.8c0.6-1.4,1.6-2.5,3-3.4c1.4-0.8,2.9-1.2,4.5-1.2c2.1,0,3.8,0.6,4.9,1.8
		c1.1,1.2,1.7,3.1,1.7,5.8v20h5.3v-20c0-3.1-0.4-5.4-1.1-7c-0.7-1.6-2-2.9-3.7-3.8c-1.7-0.9-3.7-1.4-6.1-1.4c-3.8,0-6.9,1.4-9.4,4.3
		v-15.6h-5.3v43.5H144.2z"/>
	<path class="st0" d="M792.2,471.5c2.1,1.7,5.2,2.5,9.4,2.5c2.5,0,4.7-0.4,6.6-1.3c1.9-0.9,3.4-2.1,4.5-3.6c1-1.6,1.5-3.2,1.5-5
		s-0.4-3.3-1.3-4.5c-0.9-1.2-2-2.1-3.5-2.8c-1.5-0.6-4.1-1.5-7.9-2.5c-2.6-0.7-4.2-1.1-4.7-1.4c-0.9-0.4-1.6-0.9-2-1.4
		c-0.4-0.5-0.6-1.2-0.6-1.9c0-1.1,0.5-2,1.6-2.9c1.1-0.8,2.8-1.2,5.3-1.2c2.1,0,3.7,0.5,4.8,1.3c1.1,0.9,1.8,2.2,2.1,3.8l5.2-0.7
		c-0.3-2-0.9-3.7-1.8-4.9c-0.9-1.2-2.3-2.2-4.1-2.9c-1.9-0.7-4-1.1-6.5-1.1c-1.6,0-3.1,0.2-4.6,0.6c-1.4,0.4-2.6,1-3.4,1.6
		c-1.1,0.8-2,1.8-2.6,3c-0.6,1.2-1,2.5-1,3.9c0,1.5,0.4,3,1.1,4.2c0.8,1.3,1.9,2.3,3.5,3c1.5,0.7,4.2,1.6,8.1,2.6
		c2.9,0.7,4.7,1.3,5.4,1.8c1,0.7,1.6,1.7,1.6,2.8c0,1.4-0.6,2.5-1.8,3.5c-1.2,1-3,1.5-5.5,1.5s-4.3-0.6-5.7-1.7
		c-1.3-1.1-2.2-2.7-2.5-4.9L788,464C788.6,467.3,790,469.9,792.2,471.5 M782.1,441.9h-5.3v31.5h5.3V441.9z M782.1,429.9h-5.3v6.1
		h5.3V429.9z M749.1,448.6c1.8-2,4-3,6.6-3c2.6,0,4.8,1,6.6,3c1.8,2,2.7,5,2.7,8.9c0,4.1-0.9,7.2-2.7,9.2c-1.8,2-4,3-6.6,3
		c-2.7,0-4.9-1-6.6-3c-1.8-2-2.6-5-2.6-9C746.4,453.6,747.3,450.6,749.1,448.6 M745,469.9c2.7,2.9,6.3,4.2,10.7,4.2
		c2.7,0,5.3-0.6,7.6-1.9c2.3-1.3,4.1-3.1,5.3-5.4c1.2-2.3,1.8-5.5,1.8-9.6c0-5-1.4-8.9-4.1-11.8c-2.8-2.8-6.3-4.2-10.6-4.2
		c-3.9,0-7.2,1.2-9.9,3.5c-3.2,2.8-4.9,7.1-4.9,13C740.9,463,742.3,467,745,469.9 M715.7,442.8c1-2.8,1.8-5.5,2.3-8.3
		c0.7,2.4,1.7,5.4,3.1,9l4.5,12h-14.7L715.7,442.8z M704.4,473.4l4.8-13.2h18.2l5.1,13.2h6.5l-17.8-43.5H715l-16.7,43.5H704.4z"/>
	<path class="st0" d="M710.7,618.9h-5.3v43.5h5.3V618.9z M691.8,648.5c0,2.4-0.2,4.1-0.8,5.4c-0.8,1.5-1.9,2.8-3.5,3.7
		c-1.6,0.9-3.4,1.3-5.5,1.3c-2.1,0-3.6-0.5-4.7-1.4c-1.1-0.9-1.6-2.1-1.6-3.6c0-0.9,0.2-1.8,0.7-2.5c0.5-0.8,1.2-1.3,2.1-1.7
		c0.9-0.4,2.5-0.8,4.7-1.1c3.9-0.5,6.8-1.2,8.7-2V648.5z M693.3,662.4h5.6c-0.7-1.2-1.1-2.5-1.4-3.8c-0.2-1.3-0.3-4.4-0.3-9.4v-7.1
		c0-2.4-0.1-4-0.3-4.9c-0.3-1.5-0.9-2.7-1.7-3.6c-0.8-1-2-1.8-3.7-2.4c-1.7-0.6-3.9-0.9-6.6-0.9c-2.7,0-5.1,0.4-7.1,1.1
		c-2,0.8-3.6,1.8-4.7,3.2c-1.1,1.4-1.9,3.2-2.4,5.4l5.2,0.7c0.6-2.2,1.4-3.8,2.7-4.7c1.2-0.9,3-1.3,5.5-1.3c2.7,0,4.7,0.6,6.1,1.8
		c1,0.9,1.5,2.4,1.5,4.6c0,0.2,0,0.7,0,1.4c-2,0.7-5.2,1.3-9.5,1.9c-2.1,0.2-3.7,0.5-4.8,0.8c-1.4,0.4-2.7,1-3.8,1.7
		c-1.1,0.8-2.1,1.8-2.8,3.1c-0.7,1.3-1.1,2.7-1.1,4.2c0,2.6,0.9,4.8,2.8,6.5c1.9,1.7,4.5,2.5,8,2.5c2.1,0,4.1-0.3,5.9-1
		c1.8-0.7,3.7-1.9,5.7-3.5C692.4,660,692.8,661.3,693.3,662.4 M643.3,662.4v-17.2c0-4,0.8-6.8,2.5-8.2c1.7-1.5,3.6-2.2,5.9-2.2
		c1.4,0,2.7,0.3,3.7,1c1.1,0.6,1.8,1.5,2.2,2.6c0.4,1.1,0.6,2.7,0.6,4.9v19.2h5.3V643c0-2.5-0.1-4.2-0.3-5.2
		c-0.3-1.5-0.9-2.8-1.7-3.9c-0.8-1.1-2-2-3.6-2.7c-1.6-0.7-3.3-1-5.2-1c-4.4,0-7.7,1.7-10,5.2v-4.4h-4.8v31.5H643.3z M629.8,630.9
		h-5.3v31.5h5.3V630.9z M629.8,618.9h-5.3v6.1h5.3V618.9z M596.6,637.5c1.6-2,3.6-2.9,6-2.9c2.4,0,4.5,1,6.1,3
		c1.7,2,2.5,5.2,2.5,9.5c0,3.9-0.8,6.8-2.5,8.8c-1.6,1.9-3.6,2.9-5.9,2.9c-2.3,0-4.3-1-6-3c-1.7-2-2.6-5-2.6-9
		C594.3,642.5,595.1,639.5,596.6,637.5 M616.1,662.4v-43.5h-5.3v15.6c-0.9-1.3-2.1-2.3-3.6-3.1c-1.5-0.8-3.2-1.2-5.1-1.2
		c-2.6,0-4.9,0.7-7,2c-2.1,1.4-3.7,3.3-4.7,5.9c-1.1,2.6-1.6,5.4-1.6,8.6c0,3.2,0.6,6.1,1.7,8.5c1.1,2.5,2.8,4.4,4.9,5.8
		c2.1,1.4,4.4,2.1,6.9,2.1c3.9,0,6.8-1.6,8.8-4.7v4H616.1z M582.3,662.4v-31.5H577v16.9c0,2.7-0.3,4.7-0.9,6.1
		c-0.6,1.4-1.6,2.5-3,3.4c-1.4,0.8-2.9,1.2-4.5,1.2c-1.6,0-3-0.4-4-1.2c-1.1-0.8-1.8-1.9-2.1-3.3c-0.2-1-0.3-2.8-0.3-5.6v-17.5h-5.4
		v19.5c0,2.3,0.1,3.9,0.3,5c0.3,1.5,0.9,2.9,1.7,3.9c0.8,1.1,2,2,3.6,2.7c1.6,0.7,3.3,1.1,5.2,1.1c4.2,0,7.5-1.8,10-5.3v4.6H582.3z
		 M549.4,657.8c-0.8,0-1.4-0.1-1.8-0.4c-0.4-0.2-0.7-0.6-0.9-1c-0.2-0.4-0.3-1.4-0.3-2.9V635h5.4v-4.1h-5.4v-11l-5.3,3.2v7.8h-3.9
		v4.1h3.9v18.1c0,3.2,0.2,5.3,0.7,6.3c0.4,1,1.2,1.8,2.2,2.4c1.1,0.6,2.6,0.9,4.5,0.9c1.2,0,2.5-0.2,4-0.5l-0.7-4.7
		C550.8,657.7,550,657.8,549.4,657.8 M531.9,630.9h-5.3v31.5h5.3V630.9z M531.9,618.9h-5.3v6.1h5.3V618.9z M498.8,637.5
		c1.6-1.9,3.7-2.9,6.1-2.9c2.4,0,4.5,1,6.2,3c1.7,2,2.6,4.8,2.6,8.7c0,4-0.8,7-2.5,8.9c-1.7,1.9-3.7,2.8-6.2,2.8
		c-2.5,0-4.5-1-6.2-2.8c-1.7-1.9-2.5-4.9-2.5-9C496.3,642.3,497.1,639.4,498.8,637.5 M495.2,672.6c2.3,1.7,5.3,2.5,9.1,2.5
		c3.2,0,5.8-0.6,8-1.8c2.2-1.2,3.8-2.8,4.7-4.9c1-2,1.5-5.5,1.5-10.4v-27.2h-4.9v3.8c-2.4-3-5.5-4.5-9.2-4.5c-2.8,0-5.2,0.7-7.3,2.1
		c-2.1,1.4-3.7,3.4-4.8,5.9c-1.1,2.5-1.6,5.3-1.6,8.3c0,4.4,1.2,8.1,3.6,11.2c2.4,3.1,5.7,4.7,10.1,4.7c3.5,0,6.4-1.4,8.7-4.1
		c0,3.5-0.1,5.8-0.4,6.8c-0.5,1.8-1.4,3.2-2.7,4.2c-1.3,1-3.2,1.5-5.7,1.5c-2.3,0-4.1-0.5-5.4-1.5c-1-0.8-1.6-1.9-1.8-3.5l-5.2-0.8
		C491.8,668.4,492.9,670.9,495.2,672.6 M464.4,662.4v-17.2c0-4,0.8-6.8,2.5-8.2c1.6-1.5,3.6-2.2,5.9-2.2c1.4,0,2.7,0.3,3.7,1
		c1.1,0.6,1.8,1.5,2.2,2.6c0.4,1.1,0.6,2.7,0.6,4.9v19.2h5.3V643c0-2.5-0.1-4.2-0.3-5.2c-0.3-1.5-0.9-2.8-1.7-3.9
		c-0.8-1.1-2-2-3.6-2.7c-1.6-0.7-3.3-1-5.2-1c-4.4,0-7.7,1.7-10,5.2v-4.4h-4.8v31.5H464.4z M431.4,637.6c1.8-2,3.9-3,6.6-3
		c2.6,0,4.8,1,6.6,3c1.8,2,2.7,5,2.7,8.8c0,4.1-0.9,7.2-2.7,9.2c-1.8,2-3.9,3-6.6,3c-2.7,0-4.9-1-6.6-3c-1.8-2-2.6-5-2.6-9.1
		C428.8,642.6,429.7,639.6,431.4,637.6 M427.4,658.8c2.7,2.9,6.3,4.2,10.7,4.2c2.7,0,5.3-0.6,7.6-1.9c2.3-1.3,4.1-3.1,5.3-5.4
		c1.2-2.3,1.8-5.5,1.8-9.6c0-5-1.4-8.9-4.1-11.8c-2.8-2.8-6.3-4.2-10.6-4.2c-3.9,0-7.2,1.1-9.9,3.5c-3.3,2.8-4.9,7.1-4.9,12.9
		C423.3,651.9,424.7,656,427.4,658.8 M419.1,662.4v-5.2h-21.4v-38.3H392v43.5H419.1z M346.3,662.4v-17.2c0-2.5,0.3-4.4,0.9-5.8
		c0.6-1.4,1.6-2.5,3-3.3c1.4-0.8,2.9-1.2,4.5-1.2c2.1,0,3.8,0.6,4.9,1.8c1.2,1.2,1.7,3.1,1.7,5.8v20h5.3v-20c0-3.1-0.4-5.4-1.1-7.1
		c-0.7-1.6-2-2.9-3.7-3.8c-1.7-0.9-3.7-1.4-6.1-1.4c-3.8,0-6.9,1.4-9.4,4.3v-15.6h-5.3v43.5H346.3z M312.5,660.5
		c2.1,1.7,5.3,2.5,9.4,2.5c2.5,0,4.7-0.4,6.6-1.3c1.9-0.8,3.4-2,4.5-3.6c1-1.6,1.6-3.2,1.6-5c0-1.8-0.4-3.3-1.3-4.5
		c-0.8-1.2-2-2.2-3.5-2.8c-1.5-0.6-4.1-1.5-7.9-2.5c-2.6-0.7-4.2-1.1-4.7-1.4c-0.9-0.4-1.6-0.8-2-1.4c-0.4-0.6-0.6-1.2-0.6-1.9
		c0-1.1,0.5-2,1.6-2.9c1-0.8,2.8-1.2,5.2-1.2c2.1,0,3.7,0.5,4.8,1.4c1.1,0.9,1.8,2.2,2,3.8l5.2-0.7c-0.3-2-0.9-3.7-1.8-4.9
		c-0.9-1.2-2.3-2.2-4.1-2.9c-1.9-0.7-4.1-1.1-6.5-1.1c-1.6,0-3.2,0.2-4.6,0.6c-1.4,0.4-2.6,0.9-3.4,1.6c-1.1,0.8-2,1.8-2.6,3
		c-0.6,1.2-0.9,2.5-0.9,3.9c0,1.5,0.4,2.9,1.2,4.2c0.8,1.3,1.9,2.3,3.4,3c1.5,0.7,4.2,1.6,8.1,2.6c2.9,0.8,4.7,1.3,5.5,1.8
		c1,0.7,1.6,1.6,1.6,2.8c0,1.4-0.6,2.5-1.8,3.5c-1.2,1-3,1.5-5.5,1.5c-2.4,0-4.3-0.6-5.7-1.7c-1.4-1.1-2.2-2.7-2.5-4.8l-5.3,0.8
		C309,656.3,310.4,658.8,312.5,660.5 M302.5,630.9h-5.3v31.5h5.3V630.9z M302.5,618.9h-5.3v6.1h5.3V618.9z M282.1,662.4v-16.5
		c0-2.3,0.3-4.3,0.9-6.2c0.4-1.2,1.1-2.2,2-2.9c0.9-0.7,2-1.1,3.1-1.1c1.3,0,2.6,0.4,3.9,1.2l1.8-5c-1.8-1.1-3.7-1.7-5.5-1.7
		c-1.2,0-2.4,0.3-3.4,1.1c-1,0.7-2.2,2.1-3.4,4.4v-4.8h-4.8v31.5H282.1z M267.4,618.9h-5.8v43.5h5.8V618.9z M216.2,637
		c1.7-1.6,3.7-2.5,6.2-2.5c2.7,0,4.9,1,6.6,3.1c1.1,1.3,1.8,3.3,2,6h-17.6C213.6,640.9,214.5,638.7,216.2,637 M227.6,657.2
		c-1.4,1-3.1,1.5-5,1.5c-2.6,0-4.8-0.9-6.6-2.8c-1.8-1.8-2.7-4.5-2.9-7.9h23.5c0-0.6,0-1.1,0-1.4c0-5.2-1.3-9.2-4-12.1
		c-2.7-2.9-6.1-4.3-10.3-4.3c-4.3,0-7.9,1.5-10.6,4.4c-2.7,2.9-4.1,7-4.1,12.3c0,5.1,1.4,9.1,4.1,11.9c2.7,2.9,6.4,4.3,11,4.3
		c3.6,0,6.6-0.9,9-2.7c2.3-1.8,4-4.3,4.8-7.5l-5.5-0.7C230.1,654.5,229,656.1,227.6,657.2 M181,662.4v-17.2c0-2.5,0.3-4.4,0.9-5.8
		c0.6-1.4,1.6-2.5,3-3.3c1.4-0.8,2.9-1.2,4.4-1.2c2.1,0,3.8,0.6,4.9,1.8c1.2,1.2,1.7,3.1,1.7,5.8v20h5.3v-20c0-3.1-0.4-5.4-1.1-7.1
		c-0.7-1.6-2-2.9-3.7-3.8c-1.7-0.9-3.8-1.4-6.1-1.4c-3.8,0-6.9,1.4-9.4,4.3v-15.6h-5.3v43.5H181z M156,662.4V624h14.4v-5.1H136v5.1
		h14.3v38.3H156z"/>
	<path class="st0" d="M349.7,735.2V718c0-4,0.8-6.7,2.5-8.2c1.7-1.5,3.6-2.2,5.9-2.2c1.4,0,2.6,0.3,3.7,0.9c1.1,0.6,1.8,1.5,2.2,2.6
		c0.4,1.1,0.6,2.7,0.6,4.9v19.1h5.3v-19.3c0-2.5-0.1-4.2-0.3-5.2c-0.3-1.5-0.9-2.8-1.7-3.9c-0.8-1.1-2-2-3.6-2.7
		c-1.6-0.7-3.3-1-5.2-1c-4.4,0-7.7,1.7-10,5.2v-4.5h-4.8v31.5H349.7z M316.8,710.4c1.8-2,4-3,6.7-3c2.6,0,4.8,1,6.6,3
		c1.8,2,2.7,4.9,2.7,8.8c0,4.1-0.9,7.2-2.6,9.2c-1.8,2-4,3-6.6,3c-2.7,0-4.9-1-6.7-3c-1.8-2-2.6-5-2.6-9.1
		C314.1,715.5,315,712.4,316.8,710.4 M312.7,731.7c2.7,2.8,6.3,4.2,10.7,4.2c2.7,0,5.3-0.6,7.6-1.9c2.3-1.3,4.1-3.1,5.3-5.4
		c1.2-2.3,1.8-5.5,1.8-9.5c0-5-1.4-8.9-4.1-11.8c-2.8-2.8-6.3-4.2-10.6-4.2c-3.9,0-7.2,1.2-9.9,3.5c-3.3,2.8-4.9,7.1-4.9,12.9
		C308.6,724.8,310,728.9,312.7,731.7 M266.6,748c1.7,0,3.1-0.4,4.4-1.2c1.2-0.8,2.3-2.1,3.2-3.9c0.7-1.3,1.7-3.7,3-7.2l12-32h-5.3
		l-6.7,18.3c-0.9,2.3-1.6,4.7-2.2,7.2c-0.7-2.6-1.4-5-2.3-7.3l-6.6-18.2h-5.8l11.9,31.5c-0.2,0.6-0.4,1-0.5,1.3
		c-0.8,2.1-1.3,3.4-1.6,4c-0.5,0.7-1,1.2-1.8,1.6c-0.7,0.4-1.6,0.6-2.8,0.6c-0.9,0-1.9-0.2-3.1-0.5l0.6,5
		C264.4,747.8,265.6,748,266.6,748 M235.6,710.4c1.6-1.9,3.6-2.9,5.9-2.9c2.4,0,4.5,1,6.1,3c1.7,2,2.5,5.2,2.5,9.5
		c0,3.9-0.8,6.8-2.4,8.7c-1.6,1.9-3.6,2.9-6,2.9c-2.3,0-4.3-1-6-3c-1.7-2-2.5-5-2.5-9C233.2,715.3,234,712.3,235.6,710.4 M255,735.2
		v-43.4h-5.3v15.6c-0.9-1.3-2.1-2.3-3.6-3.1c-1.5-0.8-3.2-1.2-5.1-1.2c-2.6,0-4.9,0.7-7,2c-2.1,1.4-3.7,3.3-4.7,5.9
		c-1.1,2.6-1.6,5.4-1.6,8.6c0,3.2,0.6,6.1,1.7,8.5c1.2,2.5,2.8,4.4,4.9,5.8c2.1,1.4,4.4,2.1,6.9,2.1c3.9,0,6.8-1.6,8.8-4.7v4H255z
		 M221.3,735.2v-31.5H216v16.8c0,2.7-0.3,4.8-0.9,6.2c-0.6,1.4-1.6,2.5-3,3.3c-1.4,0.8-2.9,1.2-4.5,1.2c-1.6,0-3-0.4-4-1.2
		c-1.1-0.8-1.8-1.9-2.1-3.3c-0.2-1-0.3-2.9-0.3-5.6v-17.4h-5.3v19.5c0,2.3,0.1,3.9,0.3,5c0.3,1.6,0.9,2.9,1.6,3.9
		c0.8,1.1,2,2,3.6,2.7c1.6,0.7,3.3,1.1,5.2,1.1c4.2,0,7.5-1.8,10-5.3v4.6H221.3z M188.3,730.6c-0.8,0-1.4-0.1-1.8-0.4
		c-0.4-0.2-0.7-0.6-0.9-1c-0.2-0.4-0.3-1.4-0.3-2.9v-18.4h5.4v-4.1h-5.4v-11l-5.3,3.2v7.8h-3.9v4.1h3.9V726c0,3.2,0.2,5.3,0.7,6.3
		c0.4,1,1.2,1.8,2.3,2.4c1.1,0.6,2.6,0.9,4.5,0.9c1.2,0,2.5-0.1,4-0.5l-0.8-4.7C189.7,730.6,188.9,730.6,188.3,730.6 M139.7,729.1
		c1.5,2.3,3.6,4,6.2,5.2c2.7,1.1,6,1.7,9.9,1.7c3.1,0,5.9-0.6,8.4-1.7c2.5-1.1,4.4-2.7,5.7-4.8c1.3-2,2-4.2,2-6.5
		c0-2.4-0.6-4.4-1.8-6.2c-1.2-1.8-3.1-3.3-5.6-4.4c-1.8-0.8-5-1.7-9.6-2.8c-4.7-1.1-7.6-2.1-8.7-3.1c-1.1-1-1.7-2.3-1.7-3.9
		c0-1.8,0.8-3.3,2.4-4.6c1.6-1.3,4.1-1.9,7.6-1.9c3.3,0,5.9,0.7,7.6,2.1c1.7,1.4,2.7,3.5,3,6.2l5.5-0.4c-0.1-2.5-0.8-4.8-2.1-6.8
		c-1.3-2-3.2-3.6-5.7-4.6c-2.5-1-5.3-1.6-8.5-1.6c-2.9,0-5.6,0.5-8,1.5c-2.4,1-4.2,2.4-5.4,4.3c-1.2,1.9-1.9,4-1.9,6.2
		c0,2,0.5,3.8,1.5,5.4c1,1.6,2.6,3,4.6,4.1c1.6,0.8,4.4,1.7,8.4,2.7c4,1,6.6,1.7,7.7,2.1c1.8,0.7,3.1,1.6,3.9,2.6
		c0.8,1,1.2,2.2,1.2,3.6c0,1.3-0.4,2.6-1.2,3.7c-0.8,1.1-2.1,2-3.8,2.7c-1.7,0.6-3.6,1-5.8,1c-2.5,0-4.7-0.4-6.7-1.3
		c-2-0.9-3.4-2-4.4-3.4c-0.9-1.4-1.5-3.2-1.8-5.4l-5.4,0.5C137.3,724.1,138.1,726.8,139.7,729.1"/>
	<path class="st0" d="M552.9,710.3c1.7-1.9,3.7-2.9,6-2.9c2.4,0,4.5,1,6.2,2.9c1.7,1.9,2.5,4.8,2.5,8.7c0,4-0.8,7-2.5,8.9
		c-1.7,1.9-3.7,2.8-6.1,2.8c-2.5,0-4.5-1-6.2-2.9c-1.6-1.9-2.5-4.9-2.5-9C550.4,715.1,551.2,712.2,552.9,710.3 M549.3,745.5
		c2.3,1.7,5.3,2.5,9.1,2.5c3.2,0,5.8-0.6,8-1.8c2.2-1.2,3.7-2.8,4.7-4.9c1-2,1.5-5.5,1.5-10.4v-27.2h-4.9v3.8
		c-2.4-3-5.5-4.5-9.2-4.5c-2.8,0-5.2,0.7-7.3,2.1c-2.1,1.4-3.6,3.4-4.7,5.9c-1.1,2.5-1.6,5.3-1.6,8.3c0,4.4,1.2,8.1,3.5,11.2
		c2.4,3.1,5.8,4.7,10.1,4.7c3.5,0,6.4-1.4,8.7-4.1c0,3.5-0.1,5.7-0.4,6.8c-0.5,1.8-1.4,3.2-2.7,4.2c-1.4,1-3.3,1.5-5.7,1.5
		c-2.3,0-4.1-0.5-5.4-1.5c-1-0.7-1.6-1.9-1.8-3.5l-5.2-0.8C545.9,741.2,547,743.8,549.3,745.5 M518.5,735.2V718c0-4,0.8-6.8,2.5-8.2
		c1.7-1.5,3.6-2.2,5.9-2.2c1.4,0,2.7,0.3,3.7,0.9c1,0.6,1.8,1.5,2.2,2.6c0.4,1.1,0.6,2.7,0.6,4.9v19.1h5.3v-19.3
		c0-2.5-0.1-4.2-0.3-5.2c-0.3-1.5-0.9-2.8-1.7-3.9c-0.8-1.1-2-2-3.6-2.7c-1.6-0.7-3.3-1-5.2-1c-4.4,0-7.7,1.7-10,5.2v-4.5h-4.8v31.5
		H518.5z M505.1,703.8h-5.4v31.5h5.4V703.8z M505.1,691.8h-5.4v6.1h5.4V691.8z M472.7,709.9c1.7-1.6,3.7-2.5,6.2-2.5
		c2.7,0,4.9,1,6.6,3.1c1.1,1.3,1.8,3.3,2,6H470C470.1,713.7,471.1,711.5,472.7,709.9 M484.2,730c-1.4,1-3,1.5-5,1.5
		c-2.6,0-4.8-0.9-6.6-2.8c-1.8-1.8-2.8-4.5-3-8h23.5c0-0.6,0-1.1,0-1.4c0-5.2-1.3-9.2-4-12.1c-2.7-2.9-6.1-4.3-10.3-4.3
		c-4.4,0-7.9,1.5-10.6,4.4c-2.7,2.9-4.1,7-4.1,12.3c0,5.1,1.4,9.1,4,11.9c2.7,2.8,6.4,4.2,11,4.2c3.7,0,6.7-0.9,9-2.7
		c2.4-1.8,4-4.3,4.8-7.5l-5.5-0.7C486.7,727.3,485.6,729,484.2,730 M438.1,710.3c1.6-1.9,3.7-2.9,6-2.9c2.4,0,4.5,1,6.2,2.9
		c1.7,1.9,2.6,4.8,2.6,8.7c0,4-0.8,7-2.5,8.9c-1.7,1.9-3.7,2.8-6.2,2.8c-2.5,0-4.5-1-6.1-2.9c-1.6-1.9-2.5-4.9-2.5-9
		C435.6,715.1,436.4,712.2,438.1,710.3 M434.6,745.5c2.3,1.7,5.3,2.5,9.1,2.5c3.2,0,5.8-0.6,8-1.8c2.2-1.2,3.8-2.8,4.7-4.9
		c1-2,1.5-5.5,1.5-10.4v-27.2H453v3.8c-2.4-3-5.5-4.5-9.2-4.5c-2.8,0-5.2,0.7-7.3,2.1c-2.1,1.4-3.6,3.4-4.7,5.9
		c-1.1,2.5-1.6,5.3-1.6,8.3c0,4.4,1.2,8.1,3.6,11.2c2.4,3.1,5.7,4.7,10.1,4.7c3.5,0,6.4-1.4,8.7-4.1c0,3.5-0.1,5.7-0.4,6.8
		c-0.5,1.8-1.4,3.2-2.7,4.2c-1.4,1-3.2,1.5-5.7,1.5c-2.3,0-4.1-0.5-5.4-1.5c-1-0.7-1.6-1.9-1.8-3.5l-5.2-0.8
		C431.1,741.2,432.2,743.8,434.6,745.5 M404.9,704.6c1-2.7,1.8-5.5,2.3-8.3c0.7,2.4,1.7,5.4,3.1,9l4.5,12h-14.7L404.9,704.6z
		 M393.7,735.2l4.8-13.1h18.2l5.1,13.1h6.6l-17.8-43.5h-6.2l-16.7,43.5H393.7z"/>
	<path class="st0" d="M116.8,113.2H89.7v45.5h27.1v82.5c0,22,1.5,38.1,4.6,48.2c3.1,10.1,10.1,18.5,21,25.2
		c10.9,6.7,26.7,10,47.3,10c12.6,0,26.4-1.4,41.5-4.3v-43.9c-7.7,0.3-14.2,0.4-19.3,0.4c-9.7,0-16.6-1.4-20.7-4.2
		c-4.1-2.8-6.5-6.3-7.2-10.5c-0.7-4.2-1.1-13.3-1.1-27.4v-76.1h44.9v-45.5H183V49.8l-66.2-0.1V113.2z"/>
	<rect x="365.7" y="32.4" class="st0" width="58.6" height="289.8"/>
	<path class="st0" d="M511.5,167.8c9.5-10.5,21.2-15.8,35.1-15.8c14.4,0,26.2,5.3,35.4,15.9c9.3,10.6,13.9,28,13.9,52.1
		c0,21.6-4.8,37.9-14.3,48.8c-9.5,10.9-21,16.3-34.6,16.3c-17.1,0-30.3-7.3-39.9-21.8c-6.6-10-9.8-26.2-9.8-48.6
		C497.4,194,502.1,178.3,511.5,167.8 M654.7,34.4h-58.9v104.4c-18.2-19.5-39.7-29.3-64.6-29.3c-27.1,0-49.6,9.3-67.3,27.8
		c-17.8,18.5-26.6,45.6-26.6,81.2c0,34.8,9.1,61.9,27.4,81.4c18.3,19.5,40.2,29.2,65.7,29.2c12.6,0,25.1-2.9,37.4-8.8
		c12.4-5.9,23.1-14.8,32.2-26.8v30.9h54.7V34.4z"/>
	<path class="st1" d="M258.2,131.4c0,20.6,16.7,37.3,37.3,37.3c20.6,0,37.3-16.7,37.3-37.3c0-20.6-16.7-37.3-37.3-37.3
		C274.9,94.1,258.2,110.8,258.2,131.4"/>
	<path class="st1" d="M259.7,222.5c0,20.6,16.7,37.3,37.3,37.3c20.6,0,37.3-16.7,37.3-37.3c0-20.6-16.7-37.3-37.3-37.3
		C276.3,185.2,259.7,201.9,259.7,222.5"/>
	<rect x="259.7" y="218.7" class="st1" width="74.6" height="103.7"/>
	<path class="st0" d="M724.6,178.5l-53.1-9.2c6-20.5,16.2-35.8,30.8-45.6c14.6-9.9,36.2-14.8,65-14.8c26.1,0,45.5,3,58.3,8.9
		c12.8,5.9,21.8,13.5,27,22.6c5.2,9.2,7.8,26,7.8,50.3l-0.6,65.6c0,18.7,0.6,32.7,1.6,41.6c1.1,10.1,1.9,17.5,4.9,28.4l-51.1-0.2
		c-1.5-3.7-3.4-9.3-5.6-16.6c-1-3.3-1.7-5.5-2.1-6.6c-10,9.3-20.7,16.3-32.1,21c-11.4,4.7-23.6,7-36.4,7c-22.8,0-40.7-5.9-53.8-17.8
		c-13.1-11.9-19.7-26.9-19.7-45c0-12,3-22.7,9-32.1c6-9.4,14.4-16.6,25.1-21.6c10.7-5,26.2-9.4,46.5-13.1c27.3-5,46.3-9.6,56.8-13.8
		v-5.6c0-10.8-2.8-18.5-8.3-23.1c-5.5-4.6-16.1-6.9-31.4-6.9c-10.4,0-18.5,2-24.4,5.9C732.9,161.7,728.2,168.6,724.6,178.5
		 M802.9,224.1c-7.5,2.4-19.3,5.3-35.6,8.6c-16.2,3.3-26.9,6.6-31.9,9.8c-7.6,5.2-11.4,11.8-11.4,19.8c0,7.9,3,14.7,9.1,20.4
		c6.1,5.7,13.9,8.6,23.3,8.6c10.6,0,20.6-3.3,30.2-10c7.1-5.1,11.8-11.2,13.9-18.6c1.5-4.8,2.3-13.9,2.3-27.4V224.1z"/>
	<path class="st0" d="M720.2,116.3l27.3,7.3l7.3,9.1c0.1,9.6-1,14.6-3.6,20c-15.1,4.7-18.7,12.6-23.7,27.3l-59.3-0.1l1.1-5.3
		C675.3,141.1,703,119.1,720.2,116.3"/>
	<line class="st2" x1="39.4" y1="548" x2="909.9" y2="548"/>
</g>
</svg>
