<?xml version="1.0" encoding="utf-8"?>
<!-- Generator: Adobe Illustrator 28.1.0, SVG Export Plug-In . SVG Version: 6.00 Build 0)  -->
<svg version="1.1" id="Layer_1" xmlns="http://www.w3.org/2000/svg" xmlns:xlink="http://www.w3.org/1999/xlink" x="0px" y="0px"
	 viewBox="0 0 946.4 364" style="enable-background:new 0 0 946.4 364;" xml:space="preserve">
<style type="text/css">
	.st0{fill:#0073BB;}
	.st1{fill:#60BB46;}
</style>
<g>
	<path class="st0" d="M116.8,113.2H89.7v45.5h27.1v82.5c0,22,1.5,38.1,4.6,48.2c3.1,10.1,10.1,18.5,21,25.2
		c10.9,6.7,26.7,10,47.3,10c12.6,0,26.4-1.4,41.5-4.3v-43.9c-7.7,0.3-14.2,0.4-19.3,0.4c-9.7,0-16.6-1.4-20.7-4.2
		c-4.1-2.8-6.5-6.3-7.2-10.5c-0.7-4.2-1.1-13.3-1.1-27.4v-76.1h44.9v-45.5H183V49.8l-66.2-0.1V113.2z"/>
	<rect x="365.7" y="32.4" class="st0" width="58.6" height="289.8"/>
	<path class="st0" d="M511.5,167.8c9.5-10.5,21.2-15.8,35.1-15.8c14.4,0,26.2,5.3,35.4,15.9c9.3,10.6,13.9,28,13.9,52.1
		c0,21.6-4.8,37.9-14.3,48.8c-9.5,10.9-21,16.3-34.6,16.3c-17.1,0-30.3-7.3-39.9-21.8c-6.6-10-9.8-26.2-9.8-48.6
		C497.4,194,502.1,178.3,511.5,167.8 M654.7,34.4h-58.9v104.4c-18.2-19.5-39.7-29.3-64.6-29.3c-27.1,0-49.6,9.3-67.3,27.8
		c-17.8,18.5-26.6,45.6-26.6,81.2c0,34.8,9.1,61.9,27.4,81.4c18.3,19.5,40.2,29.2,65.7,29.2c12.6,0,25.1-2.9,37.4-8.8
		c12.4-5.9,23.1-14.8,32.2-26.8v30.9h54.7V34.4z"/>
	<path class="st1" d="M258.2,131.4c0,20.6,16.7,37.3,37.3,37.3c20.6,0,37.3-16.7,37.3-37.3c0-20.6-16.7-37.3-37.3-37.3
		C274.9,94.1,258.2,110.8,258.2,131.4"/>
	<path class="st1" d="M259.7,222.5c0,20.6,16.7,37.3,37.3,37.3c20.6,0,37.3-16.7,37.3-37.3c0-20.6-16.7-37.3-37.3-37.3
		C276.3,185.2,259.7,201.9,259.7,222.5"/>
	<rect x="259.7" y="218.7" class="st1" width="74.6" height="103.7"/>
	<path class="st0" d="M724.6,178.5l-53.1-9.2c6-20.5,16.2-35.8,30.8-45.6c14.6-9.9,36.2-14.8,65-14.8c26.1,0,45.5,3,58.3,8.9
		c12.8,5.9,21.8,13.5,27,22.6c5.2,9.2,7.8,26,7.8,50.3l-0.6,65.6c0,18.7,0.6,32.7,1.6,41.6c1.1,10.1,1.9,17.5,4.9,28.4l-51.1-0.2
		c-1.5-3.7-3.4-9.3-5.6-16.6c-1-3.3-1.7-5.5-2.1-6.6c-10,9.3-20.7,16.3-32.1,21c-11.4,4.7-23.6,7-36.4,7c-22.8,0-40.7-5.9-53.8-17.8
		c-13.1-11.9-19.7-26.9-19.7-45c0-12,3-22.7,9-32.1c6-9.4,14.4-16.6,25.1-21.6c10.7-5,26.2-9.4,46.5-13.1c27.3-5,46.3-9.6,56.8-13.8
		v-5.6c0-10.8-2.8-18.5-8.3-23.1c-5.5-4.6-16.1-6.9-31.4-6.9c-10.4,0-18.5,2-24.4,5.9C732.9,161.7,728.2,168.6,724.6,178.5
		 M802.9,224.1c-7.5,2.4-19.3,5.3-35.6,8.6c-16.2,3.3-26.9,6.6-31.9,9.8c-7.6,5.2-11.4,11.8-11.4,19.8c0,7.9,3,14.7,9.1,20.4
		c6.1,5.7,13.9,8.6,23.3,8.6c10.6,0,20.6-3.3,30.2-10c7.1-5.1,11.8-11.2,13.9-18.6c1.5-4.8,2.3-13.9,2.3-27.4V224.1z"/>
	<path class="st0" d="M720.2,116.3l27.3,7.3l7.3,9.1c0.1,9.6-1,14.6-3.6,20c-15.1,4.7-18.7,12.6-23.7,27.3l-59.3-0.1l1.1-5.3
		C675.3,141.1,703,119.1,720.2,116.3"/>
</g>
</svg>
