<?xml version="1.0" encoding="UTF-8" standalone="no"?>
<svg
   xmlns:dc="http://purl.org/dc/elements/1.1/"
   xmlns:cc="http://creativecommons.org/ns#"
   xmlns:rdf="http://www.w3.org/1999/02/22-rdf-syntax-ns#"
   xmlns:svg="http://www.w3.org/2000/svg"
   xmlns="http://www.w3.org/2000/svg"
   xmlns:sodipodi="http://sodipodi.sourceforge.net/DTD/sodipodi-0.dtd"
   xmlns:inkscape="http://www.inkscape.org/namespaces/inkscape"
   viewBox="0 0 563.22215 112.67999"
   version="1.1"
   id="svg107"
   sodipodi:docname="logo-closer.svg"
   width="563.22217"
   height="112.67999"
   inkscape:version="0.92.2 (5c3e80d, 2017-08-06)">
  <metadata
     id="metadata111">
    <rdf:RDF>
      <cc:Work
         rdf:about="">
        <dc:format>image/svg+xml</dc:format>
        <dc:type
           rdf:resource="http://purl.org/dc/dcmitype/StillImage" />
        <dc:title>CloserLogo</dc:title>
      </cc:Work>
    </rdf:RDF>
  </metadata>
  <sodipodi:namedview
     pagecolor="#ffffff"
     bordercolor="#666666"
     borderopacity="1"
     objecttolerance="10"
     gridtolerance="10"
     guidetolerance="10"
     inkscape:pageopacity="0"
     inkscape:pageshadow="2"
     inkscape:window-width="1920"
     inkscape:window-height="1017"
     id="namedview109"
     showgrid="false"
     inkscape:zoom="0.33733221"
     inkscape:cx="256.65001"
     inkscape:cy="47.359998"
     inkscape:window-x="-8"
     inkscape:window-y="-8"
     inkscape:window-maximized="1"
     inkscape:current-layer="svg107" />
  <defs
     id="defs4">
    <style
       id="style2">.cls-1{isolation:isolate;}.cls-2,.cls-9{fill:#00adee;}.cls-2,.cls-3{fill-rule:evenodd;}.cls-10,.cls-11,.cls-2,.cls-3,.cls-4,.cls-5,.cls-6,.cls-7,.cls-8,.cls-9{mix-blend-mode:multiply;}.cls-3{fill:#652d90;}.cls-4{fill:#eb008b;}.cls-5{fill:#faaf40;}.cls-6{fill:#f1003a;}.cls-7{fill:#37b34a;}.cls-8{fill:#1f801e;}.cls-10{fill:#2e008b;}.cls-11{fill:#210034;}</style>
  </defs>
  <title
     id="title6">CloserLogo</title>
  <g
     class="cls-1"
     id="g105"
     style="isolation:isolate"
     transform="translate(-164.3,-232.33)">
    <g
       id="Layer_1"
       data-name="Layer 1">
      <path
         d="m 200.3,305.9 a 16.26,16.26 0 0 0 -12.7,-6 c -8.3,0 -14.8,7.4 -14.8,15.6 0,9.1 6.3,15.7 15.4,15.7 5,0 9,-2.3 12.2,-5.9 v 11 a 24.63,24.63 0 0 1 -12.3,3 c -13.1,0 -23.8,-10.1 -23.8,-23.3 0,-13.7 10.6,-23.9 24.2,-23.9 a 23.43,23.43 0 0 1 11.7,3 v 10.8 z"
         id="path8"
         inkscape:connector-curvature="0" />
      <path
         d="M 217.5,337.6 H 209 v -65.4 h 8.5 z"
         id="path10"
         inkscape:connector-curvature="0" />
      <path
         d="m 272.3,315.6 a 23.7,23.7 0 1 1 -23.7,-23.7 23.29,23.29 0 0 1 23.7,23.7 z m -39,0 a 15.2,15.2 0 1 0 15.2,-15.5 15.45,15.45 0 0 0 -15.2,15.5 z"
         id="path12"
         inkscape:connector-curvature="0" />
      <path
         d="m 297.1,303.4 a 6.45,6.45 0 0 0 -5.6,-3.9 4.6,4.6 0 0 0 -4.6,4.3 c 0,3.9 5.1,5.6 10.4,8 5.3,2.4 10.3,5.6 10.3,12.6 0,8.4 -7,14.7 -15.3,14.7 -6.4,0 -12.9,-3.7 -15.4,-10 l 7.3,-3.3 c 1.8,3.3 4,5.6 8.1,5.6 3.7,0 6.7,-2.4 6.7,-6.3 0,-2.3 -1.1,-3.5 -3.1,-4.9 l -8.3,-4.4 c -5,-2.7 -8.5,-5.1 -8.5,-11.2 a 13,13 0 0 1 13.1,-12.9 c 5.4,0 9.7,3 12.2,7.7 z"
         id="path14"
         inkscape:connector-curvature="0" />
      <path
         d="m 319.8,316.9 c 0.1,7.6 5.2,14.7 13.4,14.7 6.5,0 10.1,-3.3 13.3,-8.6 l 7.2,4.1 a 23.29,23.29 0 0 1 -20.6,12.2 c -13.6,0 -21.8,-10.3 -21.8,-23.3 0,-13.6 7.3,-23.9 21.6,-23.9 14.3,0 20.8,10.4 20.8,23.7 v 1.3 h -33.9 z m 25.4,-6.5 c -1,-6.6 -5.4,-11.1 -12.3,-11.1 a 12.73,12.73 0 0 0 -12.6,11.1 z"
         id="path16"
         inkscape:connector-curvature="0" />
      <path
         d="m 369.3,300.5 h 0.3 c 2.1,-5.2 6.4,-8.5 12.2,-8.5 a 13.45,13.45 0 0 1 7,2.2 l -3.9,7.7 a 7.51,7.51 0 0 0 -5.2,-1.8 c -9.2,0 -10.3,8.5 -10.3,15.7 v 21.8 h -8.5 v -44.4 h 8.5 z"
         id="path18"
         inkscape:connector-curvature="0" />
      <g
         class="cls-1"
         id="g38"
         style="isolation:isolate">
        <path
           d="m 501.52,291.42 v 4 h -1.23 c -0.31,0 -0.43,-0.08 -0.48,-0.25 a 12.72,12.72 0 0 1 -0.25,-1.66 h -4.23 v 14.09 a 1.52,1.52 0 0 1 0.31,0 c 0.65,0.13 1.08,0.2 1.25,0.25 0.17,0.05 0.25,0.2 0.25,0.45 v 1.06 h -6.08 v -1.06 a 0.49,0.49 0 0 1 0.43,-0.5 l 1.38,-0.27 v -14.08 h -4.25 a 16.72,16.72 0 0 1 -0.22,1.69 c 0,0.17 -0.2,0.25 -0.5,0.25 h -1.21 v -4 h 14.83 z"
           id="path20"
           inkscape:connector-curvature="0" />
        <path
           d="m 510.94,296.49 a 3.93,3.93 0 0 1 3.16,1.31 5.3,5.3 0 0 1 1.11,3.52 v 6.26 c 0.8,0.15 1.28,0.25 1.43,0.3 a 0.44,0.44 0 0 1 0.38,0.47 v 1.06 h -4 v -8.09 c 0,-2 -0.9,-3 -2.69,-3 a 4.52,4.52 0 0 0 -3.41,1.78 v 7.54 h 0.3 l 1.1,0.23 a 0.47,0.47 0 0 1 0.41,0.47 v 1.06 h -5.89 v -1.06 a 0.47,0.47 0 0 1 0.41,-0.47 l 1.4,-0.28 v -14.84 q -1.43,-0.22 -1.65,-0.3 a 0.47,0.47 0 0 1 -0.41,-0.48 v -1.06 h 4.33 v 7.49 a 5.51,5.51 0 0 1 4.02,-1.91 z"
           id="path22"
           inkscape:connector-curvature="0" />
        <path
           d="m 524.08,296.49 a 5.86,5.86 0 0 1 2.11,0.38 4.47,4.47 0 0 1 1.66,1.08 5.16,5.16 0 0 1 1.1,1.78 7.22,7.22 0 0 1 0.4,2.42 1.39,1.39 0 0 1 -0.1,0.7 0.57,0.57 0 0 1 -0.45,0.18 h -8.44 a 6.71,6.71 0 0 0 0.3,2.11 4.26,4.26 0 0 0 0.85,1.46 3.32,3.32 0 0 0 1.26,0.9 4.2,4.2 0 0 0 1.61,0.3 5.32,5.32 0 0 0 1.46,-0.17 7.59,7.59 0 0 0 1,-0.43 c 0.3,-0.15 0.56,-0.28 0.76,-0.4 a 1,1 0 0 1 0.5,-0.2 0.47,0.47 0 0 1 0.43,0.22 l 0.62,0.83 a 3.82,3.82 0 0 1 -1,0.86 5.68,5.68 0 0 1 -1.23,0.62 10.14,10.14 0 0 1 -1.36,0.36 9.18,9.18 0 0 1 -1.38,0.12 6.5,6.5 0 0 1 -2.44,-0.45 5.39,5.39 0 0 1 -1.93,-1.33 5.76,5.76 0 0 1 -1.26,-2.14 8.68,8.68 0 0 1 -0.45,-2.91 7.23,7.23 0 0 1 0.42,-2.47 6.39,6.39 0 0 1 1.18,-2 5.65,5.65 0 0 1 1.89,-1.33 6.11,6.11 0 0 1 2.49,-0.48 z m 0.07,1.64 a 3.37,3.37 0 0 0 -2.54,0.93 4.54,4.54 0 0 0 -1.15,2.61 h 6.91 a 4.3,4.3 0 0 0 -0.23,-1.41 3.13,3.13 0 0 0 -0.6,-1.13 3.21,3.21 0 0 0 -1,-0.73 3.57,3.57 0 0 0 -1.38,-0.25 z"
           id="path24"
           inkscape:connector-curvature="0" />
        <path
           d="m 544.4,296.49 a 3.94,3.94 0 0 1 3.17,1.31 5.3,5.3 0 0 1 1.11,3.52 v 6.26 c 0.8,0.15 1.28,0.25 1.43,0.3 a 0.44,0.44 0 0 1 0.38,0.47 v 1.06 h -4 v -8.09 c 0,-2 -0.9,-3 -2.69,-3 a 4.54,4.54 0 0 0 -3.42,1.78 v 7.54 h 0.3 l 1.11,0.23 a 0.46,0.46 0 0 1 0.4,0.47 v 1.06 h -5.88 v -1.06 a 0.46,0.46 0 0 1 0.4,-0.47 l 1.41,-0.28 v -14.84 c -1,-0.15 -1.51,-0.25 -1.66,-0.3 a 0.47,0.47 0 0 1 -0.4,-0.48 v -1.06 h 4.32 v 7.49 a 5.55,5.55 0 0 1 4.02,-1.91 z"
           id="path26"
           inkscape:connector-curvature="0" />
        <path
           d="m 560.26,297 a 5.44,5.44 0 0 1 1.93,1.3 5.62,5.62 0 0 1 1.21,2.06 8.79,8.79 0 0 1 0,5.43 5.62,5.62 0 0 1 -1.21,2.06 5.46,5.46 0 0 1 -1.93,1.31 7.25,7.25 0 0 1 -5,0 5.55,5.55 0 0 1 -1.93,-1.31 6,6 0 0 1 -1.23,-2.06 9.19,9.19 0 0 1 0,-5.43 6,6 0 0 1 1.23,-2.06 5.53,5.53 0 0 1 1.93,-1.3 7.11,7.11 0 0 1 5,0 z m 0.3,9.65 a 7.22,7.22 0 0 0 0,-7.09 3.2,3.2 0 0 0 -2.81,-1.26 4.07,4.07 0 0 0 -1.66,0.3 3,3 0 0 0 -1.16,1 4.14,4.14 0 0 0 -0.7,1.51 8.54,8.54 0 0 0 -0.25,2.06 8.25,8.25 0 0 0 0.25,2 4.31,4.31 0 0 0 0.7,1.51 2.85,2.85 0 0 0 1.16,0.9 4,4 0 0 0 1.66,0.35 3.21,3.21 0 0 0 2.81,-1.33 z"
           id="path28"
           inkscape:connector-curvature="0" />
        <path
           d="m 569.13,298.48 a 4.6,4.6 0 0 1 3.59,-2 3.06,3.06 0 0 1 2.11,0.73 4.23,4.23 0 0 1 1.16,1.94 3.85,3.85 0 0 1 1.66,-2 4.34,4.34 0 0 1 2.21,-0.66 5.53,5.53 0 0 1 2,0.33 3.41,3.41 0 0 1 1.35,0.93 5.16,5.16 0 0 1 1.11,3.57 v 6.28 c 0.8,0.15 1.31,0.25 1.46,0.3 a 0.42,0.42 0 0 1 0.38,0.45 v 1.11 h -4 v -8.12 a 3.3,3.3 0 0 0 -0.65,-2.26 2.48,2.48 0 0 0 -1.91,-0.78 2.58,2.58 0 0 0 -1.91,0.76 3,3 0 0 0 -0.83,2.26 v 6.28 c 0.15,0 0.62,0.15 1.43,0.3 a 0.42,0.42 0 0 1 0.38,0.45 v 1.09 h -4.05 v -8.12 c 0,-2 -0.8,-3 -2.41,-3 a 3.59,3.59 0 0 0 -2.84,1.66 v 7.64 l 0.68,0.13 0.75,0.15 a 0.44,0.44 0 0 1 0.38,0.47 v 1.06 h -5.86 v -1.06 a 0.42,0.42 0 0 1 0.35,-0.47 l 1.46,-0.28 v -9.07 c -0.8,-0.15 -1.31,-0.25 -1.46,-0.3 a 0.43,0.43 0 0 1 -0.35,-0.48 v -1.06 h 3.12 a 0.59,0.59 0 0 1 0.6,0.46 l 0.18,1.3 z"
           id="path30"
           inkscape:connector-curvature="0" />
        <path
           d="m 593.17,296.49 a 5.82,5.82 0 0 1 2.11,0.38 4.31,4.31 0 0 1 1.66,1.08 5.18,5.18 0 0 1 1.11,1.78 7.22,7.22 0 0 1 0.4,2.42 1.51,1.51 0 0 1 -0.1,0.7 0.59,0.59 0 0 1 -0.45,0.18 h -8.45 a 6.71,6.71 0 0 0 0.3,2.11 4.44,4.44 0 0 0 0.86,1.46 3.17,3.17 0 0 0 1.26,0.9 4.15,4.15 0 0 0 1.6,0.3 5.23,5.23 0 0 0 1.46,-0.17 7.76,7.76 0 0 0 1.06,-0.43 c 0.3,-0.15 0.55,-0.28 0.75,-0.4 a 1,1 0 0 1 0.5,-0.2 0.47,0.47 0 0 1 0.43,0.22 l 0.63,0.83 a 3.87,3.87 0 0 1 -1,0.86 5.68,5.68 0 0 1 -1.23,0.62 9.63,9.63 0 0 1 -1.35,0.36 9.32,9.32 0 0 1 -1.39,0.12 6.53,6.53 0 0 1 -2.44,-0.45 5.39,5.39 0 0 1 -1.93,-1.33 6,6 0 0 1 -1.26,-2.14 8.68,8.68 0 0 1 -0.45,-2.91 7,7 0 0 1 0.43,-2.47 6.39,6.39 0 0 1 1.18,-2 5.51,5.51 0 0 1 1.88,-1.33 6.18,6.18 0 0 1 2.49,-0.48 z m 0.08,1.64 a 3.35,3.35 0 0 0 -2.54,0.93 4.55,4.55 0 0 0 -1.16,2.61 h 6.91 a 4.3,4.3 0 0 0 -0.22,-1.41 3.15,3.15 0 0 0 -0.61,-1.13 3,3 0 0 0 -1,-0.73 3.57,3.57 0 0 0 -1.38,-0.25 z"
           id="path32"
           inkscape:connector-curvature="0" />
        <path
           d="m 613.65,297 a 5.44,5.44 0 0 1 1.93,1.3 5.62,5.62 0 0 1 1.21,2.06 8.79,8.79 0 0 1 0,5.43 5.62,5.62 0 0 1 -1.21,2.06 5.46,5.46 0 0 1 -1.93,1.31 6.68,6.68 0 0 1 -2.51,0.45 6.77,6.77 0 0 1 -2.52,-0.45 5.55,5.55 0 0 1 -1.93,-1.31 6,6 0 0 1 -1.23,-2.06 9.19,9.19 0 0 1 0,-5.43 6,6 0 0 1 1.23,-2.06 5.53,5.53 0 0 1 1.93,-1.3 6.58,6.58 0 0 1 2.52,-0.46 6.49,6.49 0 0 1 2.51,0.46 z m 0.3,9.65 a 7.22,7.22 0 0 0 0,-7.09 3.2,3.2 0 0 0 -2.81,-1.26 4.07,4.07 0 0 0 -1.66,0.3 3.07,3.07 0 0 0 -1.16,1 4.14,4.14 0 0 0 -0.7,1.51 8.54,8.54 0 0 0 -0.25,2.06 8.25,8.25 0 0 0 0.25,2 4.31,4.31 0 0 0 0.7,1.51 2.92,2.92 0 0 0 1.16,0.9 4,4 0 0 0 1.66,0.35 3.21,3.21 0 0 0 2.86,-1.33 z"
           id="path34"
           inkscape:connector-curvature="0" />
        <path
           d="m 625.26,292.87 c -1.71,0 -2.57,1 -2.57,2.89 V 297 h 3.67 v 1.6 h -3.62 v 9 c 1,0.15 1.56,0.25 1.69,0.27 a 0.44,0.44 0 0 1 0.37,0.48 v 1.08 h -6.23 v -1.08 a 0.45,0.45 0 0 1 0.38,-0.48 l 1.56,-0.27 v -9 l -1.41,-0.17 c -0.4,-0.1 -0.6,-0.28 -0.6,-0.58 V 297 h 2 v -1.24 a 4.55,4.55 0 0 1 1.18,-3.39 4.22,4.22 0 0 1 3.19,-1.18 5.5,5.5 0 0 1 1.58,0.25 l -0.05,1.13 a 0.29,0.29 0 0 1 -0.22,0.3 1.92,1.92 0 0 1 -0.58,0.05 h -0.35 z"
           id="path36"
           inkscape:connector-curvature="0" />
      </g>
      <g
         class="cls-1"
         id="g80"
         style="isolation:isolate">
        <path
           d="m 495,338.54 v 1.08 h -5.88 v -1.08 a 0.47,0.47 0 0 1 0.4,-0.48 l 1.41,-0.27 v -14.85 a 13.89,13.89 0 0 1 -1.41,-0.31 0.44,0.44 0 0 1 -0.4,-0.45 v -1.08 h 4.07 v 16.66 c 0.8,0.15 1.25,0.25 1.41,0.3 a 0.47,0.47 0 0 1 0.4,0.48 z"
           id="path40"
           inkscape:connector-curvature="0" />
        <path
           d="m 504.74,327.16 a 5.53,5.53 0 0 1 1.93,1.3 5.66,5.66 0 0 1 1.21,2.07 8.75,8.75 0 0 1 0,5.42 5.54,5.54 0 0 1 -1.21,2.06 5.42,5.42 0 0 1 -1.93,1.31 6.77,6.77 0 0 1 -2.52,0.45 6.68,6.68 0 0 1 -2.51,-0.45 5.33,5.33 0 0 1 -1.93,-1.31 6,6 0 0 1 -1.24,-2.06 9.38,9.38 0 0 1 0,-5.42 6.17,6.17 0 0 1 1.24,-2.07 5.44,5.44 0 0 1 1.93,-1.3 6.68,6.68 0 0 1 2.51,-0.45 6.77,6.77 0 0 1 2.52,0.45 z m 0.3,9.65 a 7.22,7.22 0 0 0 0,-7.09 3.23,3.23 0 0 0 -2.82,-1.26 4,4 0 0 0 -1.65,0.31 3,3 0 0 0 -1.16,1 4.22,4.22 0 0 0 -0.7,1.51 8.11,8.11 0 0 0 -0.26,2.06 7.71,7.71 0 0 0 0.26,2 4.22,4.22 0 0 0 0.7,1.51 2.85,2.85 0 0 0 1.16,0.9 4,4 0 0 0 1.65,0.35 3.22,3.22 0 0 0 2.78,-1.29 z"
           id="path42"
           inkscape:connector-curvature="0" />
        <path
           d="m 513.63,328.72 a 5.65,5.65 0 0 1 4.22,-2 3.9,3.9 0 0 1 3.15,1.28 5.42,5.42 0 0 1 1.08,3.5 v 6.25 c 0.8,0.15 1.28,0.25 1.43,0.3 a 0.47,0.47 0 0 1 0.4,0.48 v 1.08 h -4.07 v -8.09 c 0,-2 -0.88,-3.07 -2.66,-3.07 a 4.65,4.65 0 0 0 -3.47,1.79 v 7.54 c 0,0 0.55,0.1 1.46,0.3 a 0.45,0.45 0 0 1 0.38,0.48 v 1.05 h -5.86 v -1.05 a 0.43,0.43 0 0 1 0.35,-0.48 l 1.46,-0.28 v -9.07 c -0.81,-0.15 -1.31,-0.25 -1.46,-0.3 a 0.43,0.43 0 0 1 -0.35,-0.48 v -1 h 3.12 a 0.59,0.59 0 0 1 0.6,0.45 l 0.2,1.38 z"
           id="path44"
           inkscape:connector-curvature="0" />
        <path
           d="m 530.31,326.73 a 5.81,5.81 0 0 1 1.54,0.18 4.55,4.55 0 0 1 1.3,0.55 h 3.47 v 0.83 c 0,0.28 -0.17,0.45 -0.53,0.53 l -1.43,0.2 a 3.68,3.68 0 0 1 0.4,1.81 3.75,3.75 0 0 1 -1.33,3 5,5 0 0 1 -1.51,0.86 5.73,5.73 0 0 1 -1.91,0.27 6.09,6.09 0 0 1 -1.68,-0.22 2.13,2.13 0 0 0 -0.6,0.55 0.83,0.83 0 0 0 -0.2,0.55 0.72,0.72 0 0 0 0.35,0.68 2.51,2.51 0 0 0 1,0.33 11.16,11.16 0 0 0 1.38,0.1 c 0.5,0 1,0 1.56,0.1 a 13.29,13.29 0 0 1 1.56,0.18 5.59,5.59 0 0 1 1.38,0.45 2.77,2.77 0 0 1 1,0.88 2.33,2.33 0 0 1 0.35,1.4 3.26,3.26 0 0 1 -0.4,1.61 4.69,4.69 0 0 1 -1.21,1.36 5.8,5.8 0 0 1 -1.86,0.95 7.62,7.62 0 0 1 -2.51,0.36 9.1,9.1 0 0 1 -2.46,-0.28 6.14,6.14 0 0 1 -1.74,-0.75 3.29,3.29 0 0 1 -1,-1.08 2.6,2.6 0 0 1 -0.35,-1.26 2.33,2.33 0 0 1 0.6,-1.61 4,4 0 0 1 1.66,-1.05 2.23,2.23 0 0 1 -0.85,-0.68 2,2 0 0 1 -0.33,-1.13 2.2,2.2 0 0 1 0.1,-0.56 1.69,1.69 0 0 1 0.3,-0.6 3.43,3.43 0 0 1 0.53,-0.55 5.3,5.3 0 0 1 0.7,-0.46 4,4 0 0 1 -1.48,-1.4 3.87,3.87 0 0 1 -0.53,-2 3.63,3.63 0 0 1 0.36,-1.68 3.8,3.8 0 0 1 1,-1.28 4.74,4.74 0 0 1 1.56,-0.83 6,6 0 0 1 1.93,-0.28 z m 4,13.65 a 1.14,1.14 0 0 0 -0.25,-0.76 1.68,1.68 0 0 0 -0.73,-0.45 6.09,6.09 0 0 0 -1,-0.23 c -0.4,-0.05 -0.8,-0.1 -1.26,-0.12 -0.46,-0.02 -0.88,0 -1.33,-0.05 -0.45,-0.05 -0.88,-0.1 -1.28,-0.15 a 3.61,3.61 0 0 0 -1.18,0.83 1.69,1.69 0 0 0 -0.45,1.18 1.48,1.48 0 0 0 0.22,0.8 1.89,1.89 0 0 0 0.68,0.63 3.81,3.81 0 0 0 1.13,0.43 7.67,7.67 0 0 0 1.61,0.15 7.76,7.76 0 0 0 1.61,-0.18 3.67,3.67 0 0 0 1.2,-0.47 2.37,2.37 0 0 0 0.76,-0.71 1.64,1.64 0 0 0 0.27,-0.9 z m -4,-6.89 a 3.43,3.43 0 0 0 1.2,-0.2 2.49,2.49 0 0 0 0.88,-0.53 1.85,1.85 0 0 0 0.53,-0.83 3.26,3.26 0 0 0 0.18,-1 2.46,2.46 0 0 0 -0.73,-1.86 3.46,3.46 0 0 0 -4.12,0 2.45,2.45 0 0 0 -0.71,1.86 2.59,2.59 0 0 0 0.21,1 2.13,2.13 0 0 0 0.52,0.81 2.57,2.57 0 0 0 0.88,0.52 3.25,3.25 0 0 0 1.16,0.18 z"
           id="path46"
           inkscape:connector-curvature="0" />
        <path
           d="m 543.93,338.54 v 1.08 h -5.85 v -1.08 a 0.5,0.5 0 0 1 0.37,-0.48 l 1.46,-0.27 v -9.07 l -1.46,-0.28 a 0.48,0.48 0 0 1 -0.37,-0.48 v -1 h 4 v 10.88 l 1.43,0.27 a 0.5,0.5 0 0 1 0.42,0.43 z m -4.37,-15 a 1.3,1.3 0 0 1 -0.13,-0.6 1.43,1.43 0 0 1 0.13,-0.63 2.12,2.12 0 0 1 0.35,-0.53 1.8,1.8 0 0 1 0.5,-0.35 1.33,1.33 0 0 1 0.61,-0.12 1.29,1.29 0 0 1 0.6,0.12 1.8,1.8 0 0 1 0.5,0.35 2.12,2.12 0 0 1 0.35,0.53 1.45,1.45 0 0 1 0.15,0.63 1.33,1.33 0 0 1 -0.15,0.6 1.85,1.85 0 0 1 -0.35,0.51 1.8,1.8 0 0 1 -0.5,0.35 1.29,1.29 0 0 1 -0.6,0.12 1.33,1.33 0 0 1 -0.61,-0.12 1.8,1.8 0 0 1 -0.5,-0.35 1.85,1.85 0 0 1 -0.35,-0.54 z"
           id="path48"
           inkscape:connector-curvature="0" />
        <path
           d="m 547.7,339 a 3.27,3.27 0 0 1 -0.8,-2.41 v -7.79 h -1.54 a 0.56,0.56 0 0 1 -0.35,-0.1 0.48,0.48 0 0 1 -0.13,-0.38 v -0.88 l 2.09,-0.28 0.5,-3.94 a 0.34,0.34 0 0 1 0.15,-0.3 0.53,0.53 0 0 1 0.36,-0.1 h 1.13 v 4.37 h 3.64 v 1.63 h -3.64 v 7.64 a 1.67,1.67 0 0 0 0.37,1.21 1.46,1.46 0 0 0 1,0.37 2.13,2.13 0 0 0 0.63,-0.1 1.56,1.56 0 0 0 0.45,-0.2 c 0.13,-0.07 0.21,-0.15 0.31,-0.2 a 0.84,0.84 0 0 1 0.25,-0.1 0.36,0.36 0 0 1 0.3,0.2 l 0.65,1.06 a 4.38,4.38 0 0 1 -1.4,0.85 4.94,4.94 0 0 1 -1.69,0.3 3.12,3.12 0 0 1 -2.28,-0.85 z"
           id="path50"
           inkscape:connector-curvature="0" />
        <path
           d="m 560.76,338.06 a 4.61,4.61 0 0 0 3.45,-1.75 v -7.54 c -0.15,0 -0.63,-0.15 -1.43,-0.31 a 0.43,0.43 0 0 1 -0.38,-0.47 v -1.08 h 4 v 10.9 a 12.59,12.59 0 0 1 1.44,0.31 0.41,0.41 0 0 1 0.37,0.45 v 1.08 h -3.14 a 0.61,0.61 0 0 1 -0.6,-0.48 l -0.18,-1.36 a 5.48,5.48 0 0 1 -4.22,2 3.93,3.93 0 0 1 -3.16,-1.33 5.28,5.28 0 0 1 -1.11,-3.5 v -6.28 c -0.8,-0.15 -1.26,-0.25 -1.41,-0.3 a 0.47,0.47 0 0 1 -0.4,-0.48 v -1 h 4.07 V 335 a 3.44,3.44 0 0 0 0.65,2.26 2.48,2.48 0 0 0 2,0.78 z"
           id="path52"
           inkscape:connector-curvature="0" />
        <path
           d="m 575,326.66 a 4.5,4.5 0 0 1 3.49,1.5 v -5.22 l -1.68,-0.31 a 0.42,0.42 0 0 1 -0.38,-0.45 v -1.1 h 4.28 v 16.68 c 0.8,0.15 1.3,0.25 1.45,0.3 a 0.41,0.41 0 0 1 0.35,0.46 v 1.1 h -3.11 a 0.62,0.62 0 0 1 -0.61,-0.47 l -0.2,-1.54 a 5.33,5.33 0 0 1 -4.27,2.16 4.2,4.2 0 0 1 -3.52,-1.65 7.89,7.89 0 0 1 -1.3,-4.83 7.3,7.3 0 0 1 1.48,-4.72 4.93,4.93 0 0 1 4,-1.91 z m 0,11.34 a 4.19,4.19 0 0 0 3.41,-1.94 v -6.13 a 3.52,3.52 0 0 0 -2.94,-1.51 3.32,3.32 0 0 0 -2.79,1.26 5.88,5.88 0 0 0 -1,3.62 c 0,2.41 0.6,3.87 1.86,4.42 A 3.4,3.4 0 0 0 575,338 Z"
           id="path54"
           inkscape:connector-curvature="0" />
        <path
           d="m 589.71,338.54 v 1.08 h -5.86 v -1.08 a 0.5,0.5 0 0 1 0.38,-0.48 l 1.46,-0.27 v -9.07 l -1.46,-0.28 a 0.48,0.48 0 0 1 -0.38,-0.48 v -1 h 4 v 10.88 l 1.43,0.27 a 0.5,0.5 0 0 1 0.43,0.43 z m -4.37,-15 a 1.3,1.3 0 0 1 -0.13,-0.6 1.43,1.43 0 0 1 0.13,-0.63 2.12,2.12 0 0 1 0.35,-0.53 1.8,1.8 0 0 1 0.5,-0.35 1.29,1.29 0 0 1 0.6,-0.12 1.31,1.31 0 0 1 0.61,0.12 1.8,1.8 0 0 1 0.5,0.35 2.12,2.12 0 0 1 0.35,0.53 1.45,1.45 0 0 1 0.15,0.63 1.33,1.33 0 0 1 -0.15,0.6 1.85,1.85 0 0 1 -0.35,0.51 1.8,1.8 0 0 1 -0.5,0.35 1.31,1.31 0 0 1 -0.61,0.12 1.29,1.29 0 0 1 -0.6,-0.12 1.8,1.8 0 0 1 -0.5,-0.35 1.85,1.85 0 0 1 -0.35,-0.54 z"
           id="path56"
           inkscape:connector-curvature="0" />
        <path
           d="m 595.11,328.72 a 5.65,5.65 0 0 1 4.22,-2 3.89,3.89 0 0 1 3.17,1.28 5.42,5.42 0 0 1 1.08,3.5 v 6.25 c 0.8,0.15 1.28,0.25 1.43,0.3 a 0.47,0.47 0 0 1 0.4,0.48 v 1.08 h -4.07 v -8.09 c 0,-2 -0.88,-3.07 -2.66,-3.07 a 4.65,4.65 0 0 0 -3.47,1.79 v 7.54 c 0,0 0.55,0.1 1.46,0.3 a 0.44,0.44 0 0 1 0.37,0.48 v 1.05 h -5.85 v -1.05 a 0.43,0.43 0 0 1 0.35,-0.48 L 593,337.8 v -9.07 c -0.8,-0.15 -1.31,-0.25 -1.46,-0.3 a 0.43,0.43 0 0 1 -0.35,-0.48 v -1 h 3.12 a 0.59,0.59 0 0 1 0.6,0.45 l 0.2,1.38 z"
           id="path58"
           inkscape:connector-curvature="0" />
        <path
           d="m 617.9,338 a 0.49,0.49 0 0 1 0.38,0.48 v 1.08 h -2.62 a 1.6,1.6 0 0 1 -0.52,-0.1 c -0.15,-0.05 -0.2,-0.2 -0.26,-0.4 l -0.25,-1.21 c -0.35,0.31 -0.7,0.58 -1,0.83 a 4.18,4.18 0 0 1 -1,0.61 7.1,7.1 0 0 1 -1.1,0.37 5.71,5.71 0 0 1 -1.36,0.13 4,4 0 0 1 -1.36,-0.23 3.22,3.22 0 0 1 -1.13,-0.6 3.37,3.37 0 0 1 -0.75,-1.06 3.49,3.49 0 0 1 -0.28,-1.5 2.82,2.82 0 0 1 0.35,-1.4 4,4 0 0 1 1.36,-1.26 8.4,8.4 0 0 1 2.41,-0.9 16.79,16.79 0 0 1 3.67,-0.33 v -1 a 3.4,3.4 0 0 0 -0.65,-2.26 2.37,2.37 0 0 0 -1.89,-0.78 3.53,3.53 0 0 0 -1.38,0.23 5.26,5.26 0 0 0 -0.95,0.45 c -0.28,0.17 -0.53,0.3 -0.73,0.45 a 0.91,0.91 0 0 1 -0.58,0.2 0.65,0.65 0 0 1 -0.4,-0.1 0.89,0.89 0 0 1 -0.25,-0.3 l -0.4,-0.7 a 7.4,7.4 0 0 1 2.26,-1.51 6.72,6.72 0 0 1 2.71,-0.5 4.65,4.65 0 0 1 1.91,0.35 4.19,4.19 0 0 1 1.38,0.95 4,4 0 0 1 0.86,1.51 6.2,6.2 0 0 1 0.27,2 v 6.36 c 0.36,0.07 1.11,0.22 1.26,0.27 z m -3.47,-4.12 a 14.87,14.87 0 0 0 -2.61,0.18 7.54,7.54 0 0 0 -1.76,0.53 2.39,2.39 0 0 0 -1,0.75 1.65,1.65 0 0 0 -0.3,1 2.14,2.14 0 0 0 0.18,0.85 1.37,1.37 0 0 0 0.45,0.6 2,2 0 0 0 0.66,0.33 2.66,2.66 0 0 0 0.82,0.13 4.7,4.7 0 0 0 2,-0.46 4.78,4.78 0 0 0 0.83,-0.55 9.6,9.6 0 0 0 0.75,-0.7 z"
           id="path60"
           inkscape:connector-curvature="0" />
        <path
           d="m 625.61,338.54 v 1.08 h -5.88 v -1.08 a 0.47,0.47 0 0 1 0.4,-0.48 l 1.41,-0.27 v -14.85 c -0.8,-0.15 -1.25,-0.26 -1.41,-0.31 a 0.44,0.44 0 0 1 -0.4,-0.45 v -1.08 h 4.07 v 16.66 c 0.81,0.15 1.26,0.25 1.41,0.3 a 0.47,0.47 0 0 1 0.4,0.48 z"
           id="path62"
           inkscape:connector-curvature="0" />
        <path
           d="m 636.42,329.5 c 0.93,-1.89 2.21,-2.84 3.87,-2.84 a 3.31,3.31 0 0 1 1.73,0.45 l -0.28,1.68 c 0,0.2 -0.17,0.33 -0.32,0.33 a 2.3,2.3 0 0 1 -0.61,-0.13 3.76,3.76 0 0 0 -1,-0.12 c -1.45,0 -2.56,0.9 -3.26,2.66 v 6.28 c 0.2,0.05 0.68,0.13 1.43,0.28 a 0.45,0.45 0 0 1 0.38,0.48 v 1.05 h -5.86 v -1.05 a 0.45,0.45 0 0 1 0.38,-0.48 l 1.43,-0.28 v -9.07 c -0.8,-0.15 -1.28,-0.25 -1.43,-0.3 a 0.45,0.45 0 0 1 -0.38,-0.48 v -1 h 3.09 c 0.25,0 0.38,0 0.48,0.12 a 0.94,0.94 0 0 1 0.2,0.48 l 0.15,2 z"
           id="path64"
           inkscape:connector-curvature="0" />
        <path
           d="m 648.45,326.71 a 5.81,5.81 0 0 1 2.11,0.37 4.43,4.43 0 0 1 1.66,1.08 5.13,5.13 0 0 1 1.11,1.79 7.16,7.16 0 0 1 0.4,2.41 1.51,1.51 0 0 1 -0.1,0.7 0.59,0.59 0 0 1 -0.45,0.18 h -8.45 a 6.71,6.71 0 0 0 0.3,2.11 4.18,4.18 0 0 0 0.86,1.46 3.21,3.21 0 0 0 1.25,0.9 4.23,4.23 0 0 0 1.61,0.3 5.23,5.23 0 0 0 1.46,-0.17 8.32,8.32 0 0 0 1.06,-0.43 c 0.3,-0.15 0.55,-0.28 0.75,-0.4 a 1,1 0 0 1 0.5,-0.2 0.47,0.47 0 0 1 0.43,0.22 l 0.63,0.83 a 3.66,3.66 0 0 1 -1,0.86 5.72,5.72 0 0 1 -1.23,0.63 9.37,9.37 0 0 1 -1.36,0.35 9.18,9.18 0 0 1 -1.38,0.12 6.53,6.53 0 0 1 -2.44,-0.45 5.39,5.39 0 0 1 -1.93,-1.33 5.81,5.81 0 0 1 -1.24,-2.14 8.68,8.68 0 0 1 -0.45,-2.91 6.9,6.9 0 0 1 0.43,-2.46 6.15,6.15 0 0 1 1.18,-2 5.51,5.51 0 0 1 1.88,-1.33 6.35,6.35 0 0 1 2.49,-0.47 z m 0.08,1.63 a 3.35,3.35 0 0 0 -2.54,0.93 4.61,4.61 0 0 0 -1.16,2.61 h 6.91 a 4.2,4.2 0 0 0 -0.22,-1.4 3.28,3.28 0 0 0 -0.61,-1.14 2.85,2.85 0 0 0 -1,-0.72 3.4,3.4 0 0 0 -1.38,-0.26 z"
           id="path66"
           inkscape:connector-curvature="0" />
        <path
           d="m 660.18,326.71 a 10.78,10.78 0 0 1 3.32,0.67 v 3.27 h -1 a 0.38,0.38 0 0 1 -0.43,-0.35 c 0,-0.05 -0.05,-0.6 -0.15,-1.66 a 8.61,8.61 0 0 0 -2,-0.28 v 0 a 2.79,2.79 0 0 0 -1.74,0.56 1.46,1.46 0 0 0 -0.67,1.15 1.33,1.33 0 0 0 0.3,1 3.13,3.13 0 0 0 1.45,0.88 c 0.63,0.2 1.16,0.32 1.56,0.47 l 1.21,0.46 a 3.72,3.72 0 0 1 1,0.65 2.62,2.62 0 0 1 1,2.21 3.7,3.7 0 0 1 -1.24,2.92 5,5 0 0 1 -3.36,1.18 13.23,13.23 0 0 1 -4.13,-0.68 v -3.36 h 0.91 a 0.36,0.36 0 0 1 0.38,0.3 c 0,0.08 0,0.61 0.15,1.61 a 5.81,5.81 0 0 0 2.59,0.51 3,3 0 0 0 2,-0.63 1.73,1.73 0 0 0 0.65,-1.28 1.58,1.58 0 0 0 -0.3,-1.06 2.41,2.41 0 0 0 -0.76,-0.6 5.11,5.11 0 0 0 -1,-0.4 c -1.11,-0.36 -1.89,-0.61 -2.34,-0.81 a 4.85,4.85 0 0 1 -1.13,-0.7 2.9,2.9 0 0 1 -1.06,-2.36 3.26,3.26 0 0 1 1.21,-2.57 5.18,5.18 0 0 1 3.57,-1.1 z"
           id="path68"
           inkscape:connector-curvature="0" />
        <path
           d="m 671.74,326.71 a 5.81,5.81 0 0 1 2.11,0.37 4.43,4.43 0 0 1 1.66,1.08 5.13,5.13 0 0 1 1.11,1.79 7.16,7.16 0 0 1 0.4,2.41 1.51,1.51 0 0 1 -0.1,0.7 0.59,0.59 0 0 1 -0.45,0.18 H 668 a 6.71,6.71 0 0 0 0.3,2.11 4.34,4.34 0 0 0 0.86,1.46 3.17,3.17 0 0 0 1.26,0.9 4.15,4.15 0 0 0 1.6,0.3 5.23,5.23 0 0 0 1.46,-0.17 8.32,8.32 0 0 0 1.06,-0.43 c 0.3,-0.15 0.55,-0.28 0.75,-0.4 a 1,1 0 0 1 0.5,-0.2 0.47,0.47 0 0 1 0.43,0.22 l 0.63,0.83 a 3.52,3.52 0 0 1 -1,0.86 5.72,5.72 0 0 1 -1.23,0.63 9.58,9.58 0 0 1 -1.35,0.35 9.43,9.43 0 0 1 -1.39,0.12 6.45,6.45 0 0 1 -2.43,-0.45 5.34,5.34 0 0 1 -1.94,-1.33 5.81,5.81 0 0 1 -1.26,-2.14 8.68,8.68 0 0 1 -0.45,-2.91 6.9,6.9 0 0 1 0.43,-2.46 6.15,6.15 0 0 1 1.18,-2 5.51,5.51 0 0 1 1.88,-1.33 6.35,6.35 0 0 1 2.49,-0.47 z m 0.08,1.63 a 3.35,3.35 0 0 0 -2.54,0.93 4.61,4.61 0 0 0 -1.16,2.61 H 675 a 4.2,4.2 0 0 0 -0.22,-1.4 3.44,3.44 0 0 0 -0.6,-1.14 3,3 0 0 0 -1,-0.72 3.4,3.4 0 0 0 -1.38,-0.26 z"
           id="path70"
           inkscape:connector-curvature="0" />
        <path
           d="m 689.53,338 a 0.49,0.49 0 0 1 0.38,0.48 v 1.08 h -2.62 a 1.6,1.6 0 0 1 -0.52,-0.1 c -0.15,-0.05 -0.2,-0.2 -0.25,-0.4 l -0.26,-1.21 c -0.35,0.31 -0.7,0.58 -1,0.83 a 4,4 0 0 1 -1,0.61 7.1,7.1 0 0 1 -1.1,0.37 5.71,5.71 0 0 1 -1.36,0.13 4,4 0 0 1 -1.36,-0.23 3.22,3.22 0 0 1 -1.13,-0.6 3.37,3.37 0 0 1 -0.75,-1.06 3.49,3.49 0 0 1 -0.28,-1.5 2.82,2.82 0 0 1 0.4,-1.46 4,4 0 0 1 1.36,-1.26 8.4,8.4 0 0 1 2.41,-0.9 16.79,16.79 0 0 1 3.67,-0.33 v -1 a 3.4,3.4 0 0 0 -0.65,-2.26 2.35,2.35 0 0 0 -1.88,-0.78 3.55,3.55 0 0 0 -1.39,0.23 5.26,5.26 0 0 0 -1,0.45 c -0.28,0.17 -0.53,0.3 -0.73,0.45 a 0.91,0.91 0 0 1 -0.58,0.2 0.65,0.65 0 0 1 -0.4,-0.1 0.89,0.89 0 0 1 -0.25,-0.3 l -0.4,-0.7 a 7.4,7.4 0 0 1 2.26,-1.51 6.72,6.72 0 0 1 2.71,-0.5 4.62,4.62 0 0 1 1.91,0.35 4.19,4.19 0 0 1 1.38,0.95 4,4 0 0 1 0.86,1.51 6.2,6.2 0 0 1 0.28,2 v 6.36 c 0.35,0.07 1.1,0.22 1.25,0.27 z m -3.47,-4.12 a 14.87,14.87 0 0 0 -2.61,0.18 7.54,7.54 0 0 0 -1.76,0.53 2.29,2.29 0 0 0 -1,0.75 1.6,1.6 0 0 0 -0.31,1 2.14,2.14 0 0 0 0.18,0.85 1.37,1.37 0 0 0 0.45,0.6 2,2 0 0 0 0.66,0.33 2.68,2.68 0 0 0 0.83,0.13 4.7,4.7 0 0 0 2,-0.46 4.78,4.78 0 0 0 0.83,-0.55 9.6,9.6 0 0 0 0.75,-0.7 z"
           id="path72"
           inkscape:connector-curvature="0" />
        <path
           d="m 695.36,329.5 c 0.93,-1.89 2.21,-2.84 3.87,-2.84 a 3.31,3.31 0 0 1 1.73,0.45 l -0.27,1.68 c -0.05,0.2 -0.18,0.33 -0.33,0.33 a 2.17,2.17 0 0 1 -0.6,-0.13 3.81,3.81 0 0 0 -1,-0.12 c -1.46,0 -2.57,0.9 -3.27,2.66 v 6.28 c 0.2,0.05 0.68,0.13 1.43,0.28 a 0.45,0.45 0 0 1 0.38,0.48 v 1.05 h -5.86 v -1.05 a 0.45,0.45 0 0 1 0.38,-0.48 l 1.43,-0.28 v -9.07 c -0.8,-0.15 -1.28,-0.25 -1.43,-0.3 a 0.45,0.45 0 0 1 -0.38,-0.48 v -1 h 3.09 c 0.26,0 0.38,0 0.48,0.12 a 0.94,0.94 0 0 1 0.2,0.48 l 0.15,2 z"
           id="path74"
           inkscape:connector-curvature="0" />
        <path
           d="m 707.19,339.8 a 5,5 0 0 1 -4,-1.74 8,8 0 0 1 -0.1,-9.52 5.66,5.66 0 0 1 4.48,-1.83 11.19,11.19 0 0 1 3.77,0.9 v 3.32 h -1 a 0.38,0.38 0 0 1 -0.43,-0.35 c 0,-0.1 0,-0.41 -0.1,-1 -0.1,-0.59 -0.07,-0.8 -0.07,-0.83 -0.41,-0.12 -0.71,-0.17 -0.91,-0.22 a 8.71,8.71 0 0 0 -1.41,-0.11 3.48,3.48 0 0 0 -1.38,0.33 3.29,3.29 0 0 0 -1.18,0.93 5.66,5.66 0 0 0 -1,3.52 5.82,5.82 0 0 0 1,3.57 3.21,3.21 0 0 0 2.69,1.25 4.11,4.11 0 0 0 2.79,-1.05 0.68,0.68 0 0 1 0.5,-0.2 0.42,0.42 0 0 1 0.4,0.2 l 0.61,0.83 a 5.77,5.77 0 0 1 -4.66,2 z"
           id="path76"
           inkscape:connector-curvature="0" />
        <path
           d="m 721.44,326.71 a 3.94,3.94 0 0 1 3.17,1.3 5.37,5.37 0 0 1 1.1,3.52 v 6.26 c 0.81,0.15 1.28,0.25 1.43,0.3 a 0.44,0.44 0 0 1 0.38,0.48 v 1.05 h -4 v -8.09 c 0,-2 -0.91,-3 -2.69,-3 a 4.53,4.53 0 0 0 -3.42,1.78 v 7.54 l 0.3,0.05 1.11,0.23 a 0.47,0.47 0 0 1 0.4,0.48 v 1.05 h -5.92 v -1.05 a 0.47,0.47 0 0 1 0.4,-0.48 l 1.41,-0.28 V 323 c -1,-0.15 -1.51,-0.25 -1.66,-0.3 a 0.47,0.47 0 0 1 -0.4,-0.48 v -1.05 h 4.32 v 7.49 a 5.49,5.49 0 0 1 4.07,-1.95 z"
           id="path78"
           inkscape:connector-curvature="0" />
      </g>
      <path
         class="cls-2"
         d="m 413.79,338.59 a 6.42,6.42 0 1 1 -6.41,-6.42 6.41,6.41 0 0 1 6.41,6.42 z"
         id="path82"
         inkscape:connector-curvature="0"
         style="mix-blend-mode:multiply;fill:#00adee;fill-rule:evenodd" />
      <path
         class="cls-3"
         d="m 394.12,247.17 a 14.85,14.85 0 1 1 -14.84,-14.84 14.84,14.84 0 0 1 14.84,14.84 z"
         id="path84"
         inkscape:connector-curvature="0"
         style="mix-blend-mode:multiply;fill:#652d90;fill-rule:evenodd" />
      <path
         class="cls-4"
         d="m 452.72,265 a 13.29,13.29 0 0 1 6.69,-5.41 19.24,19.24 0 0 0 -38.13,-1.1 26.85,26.85 0 0 1 31.44,6.51 z"
         id="path86"
         inkscape:connector-curvature="0"
         style="mix-blend-mode:multiply;fill:#eb008b" />
      <path
         class="cls-5"
         d="M 451.69,277.05 A 19.22,19.22 0 0 1 421,261.58 a 19.74,19.74 0 0 1 0.27,-3.1 26.88,26.88 0 0 0 1.44,49.33 19,19 0 0 1 30.29,-7.42 26.74,26.74 0 0 0 6.48,-15.93 13.29,13.29 0 0 1 -7.79,-7.41 z"
         id="path88"
         inkscape:connector-curvature="0"
         style="mix-blend-mode:multiply;fill:#faaf40" />
      <path
         class="cls-6"
         d="m 440.27,280.84 a 19.12,19.12 0 0 0 11.42,-3.79 13.17,13.17 0 0 1 1,-12.06 26.85,26.85 0 0 0 -31.44,-6.51 19.74,19.74 0 0 0 -0.27,3.1 19.27,19.27 0 0 0 19.29,19.26 z"
         id="path90"
         inkscape:connector-curvature="0"
         style="mix-blend-mode:multiply;fill:#f1003a" />
      <path
         class="cls-7"
         d="m 432.64,309.71 a 26.82,26.82 0 0 1 -9.92,-1.9 19,19 0 1 0 30.28,-7.42 26.79,26.79 0 0 1 -20.36,9.32 z"
         id="path92"
         inkscape:connector-curvature="0"
         style="mix-blend-mode:multiply;fill:#37b34a" />
      <path
         class="cls-8"
         d="m 422.72,307.81 a 26.85,26.85 0 0 0 30.28,-7.42 19,19 0 0 0 -30.26,7.42 z"
         id="path94"
         inkscape:connector-curvature="0"
         style="mix-blend-mode:multiply;fill:#1f801e" />
      <path
         class="cls-9"
         d="m 463.92,258.78 a 13.2,13.2 0 0 0 -4.51,0.8 19.29,19.29 0 0 1 -2.52,11.67 26.76,26.76 0 0 1 2.62,11.58 c 0,0.55 0,1.09 -0.05,1.63 a 13.23,13.23 0 1 0 4.46,-25.68 z"
         id="path96"
         inkscape:connector-curvature="0"
         style="mix-blend-mode:multiply;fill:#00adee" />
      <path
         class="cls-10"
         d="m 452.72,265 a 26.49,26.49 0 0 1 4.17,6.26 19.29,19.29 0 0 0 2.52,-11.67 13.29,13.29 0 0 0 -6.69,5.41 z"
         id="path98"
         inkscape:connector-curvature="0"
         style="mix-blend-mode:multiply;fill:#2e008b" />
      <path
         class="cls-8"
         d="m 456.89,271.25 a 19.38,19.38 0 0 1 -5.2,5.8 13.29,13.29 0 0 0 7.77,7.41 c 0,-0.54 0.05,-1.08 0.05,-1.63 a 26.76,26.76 0 0 0 -2.62,-11.58 z"
         id="path100"
         inkscape:connector-curvature="0"
         style="mix-blend-mode:multiply;fill:#1f801e" />
      <path
         class="cls-11"
         d="m 450.69,272 a 13.25,13.25 0 0 0 1,5 19.38,19.38 0 0 0 5.2,-5.8 26.49,26.49 0 0 0 -4.17,-6.26 13.13,13.13 0 0 0 -2.03,7.06 z"
         id="path102"
         inkscape:connector-curvature="0"
         style="mix-blend-mode:multiply;fill:#210034" />
    </g>
  </g>
</svg>
